<svg width="130" height="38" viewBox="0 0 130 38" fill="none" xmlns="http://www.w3.org/2000/svg">
<path d="M128.965 33.144C128.965 35.1406 127.314 36.7578 125.272 36.7578H4.41849C2.37744 36.7578 0.720703 35.1406 0.720703 33.144V4.32534C0.720703 2.32975 2.37744 0.706848 4.41849 0.706848H125.271C127.314 0.706848 128.964 2.32975 128.964 4.32534L128.965 33.144Z" fill="black"/>
<path d="M124.882 0.750455C127.106 0.750455 128.916 2.51481 128.916 4.68308V32.7816C128.916 34.9499 127.106 36.7143 124.882 36.7143H4.80317C2.5793 36.7143 0.769708 34.9499 0.769708 32.7816V4.68308C0.769708 2.51481 2.5793 0.750455 4.80317 0.750455H124.882ZM124.882 -9.2477e-06H4.80317C2.16263 -9.2477e-06 0 2.10855 0 4.68308V32.7816C0 35.3562 2.16263 37.4647 4.80317 37.4647H124.882C127.523 37.4647 129.686 35.3562 129.686 32.7816V4.68308C129.686 2.10855 127.523 -9.2477e-06 124.882 -9.2477e-06Z" fill="#A6A6A6"/>
<path d="M28.9422 18.53C28.9144 15.5113 31.4773 14.0427 31.5945 13.9743C30.143 11.911 27.8932 11.629 27.1026 11.6066C25.213 11.4127 23.3801 12.709 22.4176 12.709C21.4358 12.709 19.9536 11.6253 18.356 11.6571C16.3003 11.688 14.3771 12.8485 13.3223 14.6506C11.1455 18.3249 12.769 23.7245 14.8545 26.6945C15.8978 28.1491 17.1168 29.7732 18.7124 29.7161C20.2735 29.6533 20.8566 28.7457 22.7404 28.7457C24.6069 28.7457 25.1544 29.7161 26.7818 29.6795C28.4571 29.6533 29.5119 28.2184 30.5186 26.7507C31.7242 25.0836 32.2084 23.4417 32.2276 23.3574C32.1882 23.3443 28.9739 22.1482 28.9422 18.53Z" fill="white"/>
<path d="M25.8682 9.65277C26.7078 8.62905 27.2822 7.23629 27.1228 5.82294C25.9076 5.87539 24.3879 6.64248 23.5127 7.64372C22.7384 8.52602 22.0468 9.97216 22.2255 11.3321C23.5905 11.4314 24.9921 10.6606 25.8682 9.65277Z" fill="white"/>
<path d="M51.5334 29.5072H49.3518L48.1568 25.8459H44.003L42.8647 29.5072H40.7407L44.8561 17.0427H47.3979L51.5334 29.5072ZM47.7966 24.3099L46.7159 21.0551C46.6016 20.7226 46.3873 19.9396 46.0713 18.707H46.0329C45.907 19.2372 45.7043 20.0202 45.4257 21.0551L44.3642 24.3099H47.7966Z" fill="white"/>
<path d="M62.117 24.9028C62.117 26.4313 61.6933 27.6396 60.846 28.5266C60.0871 29.3161 59.1448 29.7104 58.0199 29.7104C56.8056 29.7104 55.9334 29.2852 55.4021 28.4348H55.3637V33.1694H53.3156V23.4782C53.3156 22.5172 53.2897 21.531 53.2397 20.5194H55.0409L55.1553 21.944H55.1937C55.8767 20.8706 56.9132 20.3349 58.3042 20.3349C59.3916 20.3349 60.2994 20.7536 61.0257 21.5918C61.7538 22.4311 62.117 23.5344 62.117 24.9028ZM60.0305 24.9758C60.0305 24.101 59.8287 23.3798 59.4233 22.8123C58.9805 22.2203 58.3859 21.9243 57.6404 21.9243C57.1351 21.9243 56.6759 22.0892 56.2657 22.4142C55.8546 22.742 55.5856 23.17 55.4598 23.7002C55.3964 23.9474 55.3647 24.1497 55.3647 24.309V25.8076C55.3647 26.4613 55.5702 27.013 55.9814 27.4635C56.3925 27.914 56.9267 28.1388 57.5837 28.1388C58.3551 28.1388 58.9555 27.8485 59.3849 27.2696C59.8153 26.6899 60.0305 25.9256 60.0305 24.9758Z" fill="white"/>
<path d="M72.719 24.9028C72.719 26.4313 72.2954 27.6396 71.4472 28.5266C70.6892 29.3161 69.7468 29.7104 68.6219 29.7104C67.4077 29.7104 66.5354 29.2852 66.0052 28.4348H65.9667V33.1694H63.9187V23.4782C63.9187 22.5172 63.8927 21.531 63.8428 20.5194H65.644L65.7583 21.944H65.7967C66.4788 20.8706 67.5153 20.3349 68.9072 20.3349C69.9937 20.3349 70.9015 20.7536 71.6297 21.5918C72.355 22.4311 72.719 23.5344 72.719 24.9028ZM70.6325 24.9758C70.6325 24.101 70.4298 23.3798 70.0245 22.8123C69.5816 22.2203 68.9889 21.9243 68.2425 21.9243C67.7362 21.9243 67.278 22.0892 66.8669 22.4142C66.4557 22.742 66.1877 23.17 66.0618 23.7002C65.9994 23.9474 65.9667 24.1497 65.9667 24.309V25.8076C65.9667 26.4613 66.1723 27.013 66.5815 27.4635C66.9927 27.9131 67.5268 28.1388 68.1858 28.1388C68.9572 28.1388 69.5576 27.8485 69.987 27.2696C70.4174 26.6899 70.6325 25.9256 70.6325 24.9758Z" fill="white"/>
<path d="M84.5736 26.0117C84.5736 27.072 84.196 27.9346 83.4381 28.6006C82.6052 29.3283 81.4458 29.6917 79.9558 29.6917C78.5802 29.6917 77.4774 29.4332 76.6426 28.9153L77.1171 27.2509C78.0163 27.781 79.0029 28.047 80.0778 28.047C80.8492 28.047 81.4496 27.8766 81.8809 27.5375C82.3103 27.1984 82.5245 26.7432 82.5245 26.1757C82.5245 25.6699 82.3478 25.2437 81.9933 24.8981C81.6408 24.5525 81.0519 24.2312 80.2296 23.9343C77.9913 23.1204 76.8731 21.9281 76.8731 20.3602C76.8731 19.3355 77.2651 18.4954 78.0499 17.8416C78.8319 17.1869 79.8751 16.86 81.1797 16.86C82.343 16.86 83.3094 17.0577 84.0808 17.452L83.5687 19.0798C82.8483 18.6977 82.0337 18.5066 81.122 18.5066C80.4015 18.5066 79.8386 18.6799 79.4351 19.0246C79.0941 19.3327 78.9231 19.7083 78.9231 20.1532C78.9231 20.6459 79.1181 21.0533 79.5101 21.3736C79.8511 21.6696 80.4707 21.9899 81.3699 22.3355C82.4698 22.7673 83.2777 23.2721 83.7974 23.851C84.3152 24.4279 84.5736 25.1501 84.5736 26.0117Z" fill="white"/>
<path d="M91.3449 22.018H89.0874V26.3817C89.0874 27.4916 89.4851 28.0461 90.2824 28.0461C90.6484 28.0461 90.952 28.0152 91.1922 27.9534L91.2488 29.4697C90.8454 29.6168 90.3141 29.6908 89.6561 29.6908C88.8473 29.6908 88.2152 29.4501 87.7589 28.9696C87.3045 28.4882 87.0758 27.6808 87.0758 26.5466V22.0161H85.731V20.5175H87.0758V18.8719L89.0874 18.28V20.5175H91.3449V22.018Z" fill="white"/>
<path d="M101.53 24.9393C101.53 26.3208 101.125 27.4551 100.316 28.342C99.468 29.2552 98.3421 29.7104 96.9386 29.7104C95.5861 29.7104 94.5092 29.273 93.7061 28.3982C92.903 27.5234 92.5015 26.4192 92.5015 25.0882C92.5015 23.6955 92.9145 22.5547 93.7436 21.6677C94.5707 20.7798 95.6869 20.3358 97.0904 20.3358C98.443 20.3358 99.5314 20.7732 100.353 21.649C101.139 22.4985 101.53 23.5952 101.53 24.9393ZM99.4055 25.0039C99.4055 24.175 99.224 23.4641 98.8561 22.8712C98.4267 22.1538 97.8128 21.796 97.0174 21.796C96.1941 21.796 95.5688 22.1547 95.1394 22.8712C94.7714 23.4651 94.5899 24.1872 94.5899 25.0414C94.5899 25.8703 94.7714 26.5812 95.1394 27.1731C95.5822 27.8906 96.2009 28.2484 96.9992 28.2484C97.7811 28.2484 98.395 27.8831 98.8378 27.1544C99.2153 26.5503 99.4055 25.8319 99.4055 25.0039Z" fill="white"/>
<path d="M108.188 22.2756C107.985 22.239 107.769 22.2203 107.542 22.2203C106.822 22.2203 106.265 22.4854 105.873 23.0164C105.532 23.4847 105.361 24.0767 105.361 24.7913V29.5072H103.313L103.333 23.3499C103.333 22.314 103.307 21.3708 103.256 20.5204H105.04L105.115 22.24H105.171C105.388 21.649 105.729 21.1732 106.195 20.8163C106.652 20.4951 107.145 20.3349 107.676 20.3349C107.865 20.3349 108.036 20.348 108.188 20.3714V22.2756Z" fill="white"/>
<path d="M117.348 24.5881C117.348 24.9459 117.324 25.2475 117.273 25.4938H111.128C111.152 26.3817 111.449 27.0608 112.02 27.5291C112.538 27.9477 113.207 28.1575 114.03 28.1575C114.939 28.1575 115.769 28.0161 116.516 27.7323L116.836 29.1185C115.964 29.4894 114.934 29.6739 113.746 29.6739C112.317 29.6739 111.195 29.2637 110.378 28.4442C109.564 27.6246 109.155 26.5241 109.155 25.1435C109.155 23.7882 109.535 22.6596 110.295 21.7595C111.09 20.7985 112.165 20.3181 113.518 20.3181C114.846 20.3181 115.852 20.7985 116.535 21.7595C117.076 22.5229 117.348 23.467 117.348 24.5881ZM115.395 24.0701C115.408 23.4782 115.275 22.9668 114.997 22.535C114.642 21.9796 114.098 21.7024 113.365 21.7024C112.695 21.7024 112.151 21.9731 111.735 22.5163C111.394 22.9481 111.191 23.466 111.128 24.0692H115.395V24.0701Z" fill="white"/>
<path d="M47.119 9.37457C47.119 10.477 46.7799 11.3068 46.1026 11.8641C45.4754 12.3783 44.5839 12.6359 43.4292 12.6359C42.8567 12.6359 42.3667 12.6115 41.9565 12.5628V6.53943C42.4916 6.45513 43.068 6.41205 43.6905 6.41205C44.7904 6.41205 45.6194 6.64527 46.1785 7.1117C46.8049 7.63902 47.119 8.393 47.119 9.37457ZM46.0575 9.40173C46.0575 8.68709 45.8634 8.13917 45.4754 7.75703C45.0873 7.37583 44.5205 7.18476 43.7741 7.18476C43.4571 7.18476 43.1871 7.20536 42.9633 7.24845V11.8276C43.0872 11.8463 43.3139 11.8547 43.6434 11.8547C44.4138 11.8547 45.0085 11.6459 45.4273 11.2281C45.8462 10.8104 46.0575 10.2016 46.0575 9.40173Z" fill="white"/>
<path d="M52.7473 10.3375C52.7473 11.0165 52.5484 11.5729 52.1507 12.0093C51.7338 12.458 51.1814 12.6818 50.4917 12.6818C49.8269 12.6818 49.2976 12.4673 48.9028 12.0365C48.5089 11.6066 48.312 11.0643 48.312 10.4105C48.312 9.7268 48.5147 9.16576 48.922 8.73024C49.3293 8.29471 49.8769 8.07648 50.5666 8.07648C51.2314 8.07648 51.7655 8.29096 52.1699 8.72087C52.5542 9.1386 52.7473 9.67809 52.7473 10.3375ZM51.7031 10.3693C51.7031 9.96189 51.6128 9.61253 51.4331 9.32124C51.2218 8.96907 50.9211 8.79299 50.5301 8.79299C50.1257 8.79299 49.8183 8.96907 49.6069 9.32124C49.4263 9.61253 49.337 9.96751 49.337 10.3871C49.337 10.7945 49.4273 11.1439 49.6069 11.4352C49.825 11.7874 50.1286 11.9634 50.5205 11.9634C50.9048 11.9634 51.2064 11.7845 51.4235 11.4258C51.6099 11.1289 51.7031 10.7767 51.7031 10.3693Z" fill="white"/>
<path d="M60.294 8.16632L58.8771 12.5815H57.9549L57.3679 10.6643C57.219 10.1857 57.098 9.70987 57.0039 9.23781H56.9856C56.8982 9.72298 56.7772 10.1978 56.6215 10.6643L55.9981 12.5815H55.0653L53.7329 8.16632H54.7675L55.2795 10.2653C55.4034 10.7617 55.5053 11.2347 55.5869 11.6824H55.6052C55.6801 11.3134 55.804 10.8432 55.9789 10.2746L56.6215 8.16726H57.4419L58.0577 10.2297C58.2066 10.7327 58.3276 11.2169 58.4208 11.6833H58.4487C58.5169 11.2291 58.6197 10.7448 58.7561 10.2297L59.3055 8.16726H60.294V8.16632Z" fill="white"/>
<path d="M65.5133 12.5816H64.5065V10.0527C64.5065 9.27348 64.203 8.88384 63.5939 8.88384C63.2952 8.88384 63.0541 8.99062 62.8667 9.2051C62.6813 9.41959 62.5872 9.67248 62.5872 9.96189V12.5807H61.5804V9.42802C61.5804 9.04026 61.568 8.61972 61.5439 8.16452H62.4287L62.4758 8.85481H62.5036C62.6208 8.64032 62.7956 8.4633 63.0252 8.32187C63.2981 8.15703 63.6035 8.07367 63.9378 8.07367C64.3605 8.07367 64.7121 8.20667 64.9917 8.47361C65.3394 8.80049 65.5133 9.28846 65.5133 9.9366V12.5816Z" fill="white"/>
<path d="M68.2895 12.5816H67.2837V6.14044H68.2895V12.5816Z" fill="white"/>
<path d="M74.2165 10.3375C74.2165 11.0165 74.0176 11.5729 73.6199 12.0093C73.203 12.458 72.6497 12.6818 71.9609 12.6818C71.2952 12.6818 70.7659 12.4673 70.372 12.0365C69.9782 11.6066 69.7812 11.0643 69.7812 10.4105C69.7812 9.7268 69.9839 9.16576 70.3913 8.73024C70.7986 8.29471 71.3461 8.07648 72.0349 8.07648C72.7006 8.07648 73.2338 8.29096 73.6392 8.72087C74.0234 9.1386 74.2165 9.67809 74.2165 10.3375ZM73.1713 10.3693C73.1713 9.96189 73.081 9.61253 72.9014 9.32124C72.691 8.96907 72.3894 8.79299 71.9994 8.79299C71.594 8.79299 71.2866 8.96907 71.0762 9.32124C70.8956 9.61253 70.8062 9.96751 70.8062 10.3871C70.8062 10.7945 70.8965 11.1439 71.0762 11.4352C71.2942 11.7874 71.5978 11.9634 71.9898 11.9634C72.374 11.9634 72.6747 11.7845 72.8918 11.4258C73.0791 11.1289 73.1713 10.7767 73.1713 10.3693Z" fill="white"/>
<path d="M79.0892 12.5816H78.1853L78.1103 12.073H78.0825C77.7732 12.4786 77.3322 12.6818 76.7597 12.6818C76.3322 12.6818 75.9864 12.5479 75.7261 12.2819C75.4897 12.0402 75.3716 11.7396 75.3716 11.3827C75.3716 10.8432 75.6021 10.4321 76.0661 10.1473C76.5291 9.86261 77.1805 9.72305 78.0191 9.72961V9.64719C78.0191 9.06555 77.7059 8.77519 77.0786 8.77519C76.6319 8.77519 76.2381 8.88478 75.898 9.10207L75.6934 8.45768C76.1142 8.20386 76.6339 8.07648 77.2467 8.07648C78.4302 8.07648 79.0239 8.68528 79.0239 9.90288V11.5289C79.0239 11.97 79.046 12.3212 79.0892 12.5816ZM78.0441 11.0643V10.3834C76.9336 10.3646 76.3783 10.6615 76.3783 11.2732C76.3783 11.5036 76.4417 11.6759 76.5714 11.7911C76.7011 11.9063 76.8663 11.9634 77.0633 11.9634C77.2842 11.9634 77.4907 11.8951 77.679 11.7593C77.8683 11.6225 77.9845 11.4492 78.0277 11.2366C78.0383 11.1889 78.0441 11.1308 78.0441 11.0643Z" fill="white"/>
<path d="M84.8092 12.5816H83.9158L83.8687 11.8725H83.8409C83.5555 12.412 83.0695 12.6818 82.3865 12.6818C81.8408 12.6818 81.3864 12.4729 81.0262 12.0552C80.666 11.6375 80.4863 11.0952 80.4863 10.4292C80.4863 9.71458 80.6813 9.13575 81.0733 8.69366C81.4527 8.28155 81.9177 8.07549 82.471 8.07549C83.0791 8.07549 83.5046 8.27499 83.7467 8.67493H83.7659V6.14044H84.7736V11.3921C84.7736 11.822 84.7852 12.2182 84.8092 12.5816ZM83.7659 10.7196V9.98339C83.7659 9.85601 83.7563 9.75298 83.7381 9.6743C83.6814 9.43828 83.5594 9.23971 83.374 9.07955C83.1867 8.91939 82.9609 8.83884 82.7006 8.83884C82.325 8.83884 82.031 8.98401 81.8149 9.2753C81.6007 9.56659 81.4921 9.93843 81.4921 10.3927C81.4921 10.8292 81.5949 11.1832 81.8014 11.4558C82.0195 11.7461 82.3134 11.8913 82.6814 11.8913C83.0118 11.8913 83.276 11.7705 83.4768 11.5279C83.6708 11.304 83.7659 11.0343 83.7659 10.7196Z" fill="white"/>
<path d="M93.4196 10.3375C93.4196 11.0165 93.2208 11.5729 92.8231 12.0093C92.4062 12.458 91.8548 12.6818 91.1641 12.6818C90.5003 12.6818 89.971 12.4673 89.5752 12.0365C89.1813 11.6066 88.9844 11.0643 88.9844 10.4105C88.9844 9.7268 89.1871 9.16576 89.5944 8.73024C90.0017 8.29471 90.5492 8.07648 91.2399 8.07648C91.9037 8.07648 92.4388 8.29096 92.8423 8.72087C93.2265 9.1386 93.4196 9.67809 93.4196 10.3375ZM92.3764 10.3693C92.3764 9.96189 92.2861 9.61253 92.1064 9.32124C91.8941 8.96907 91.5944 8.79299 91.2025 8.79299C90.799 8.79299 90.4916 8.96907 90.2793 9.32124C90.0987 9.61253 90.0094 9.96751 90.0094 10.3871C90.0094 10.7945 90.0997 11.1439 90.2793 11.4352C90.4974 11.7874 90.8009 11.9634 91.1929 11.9634C91.5771 11.9634 91.8797 11.7845 92.0968 11.4258C92.2822 11.1289 92.3764 10.7767 92.3764 10.3693Z" fill="white"/>
<path d="M98.8326 12.5816H97.8268V10.0527C97.8268 9.27348 97.5233 8.88384 96.9133 8.88384C96.6145 8.88384 96.3734 8.99062 96.187 9.2051C96.0007 9.41959 95.9075 9.67248 95.9075 9.96189V12.5807H94.8998V9.42802C94.8998 9.04026 94.8883 8.61972 94.8643 8.16452H95.748L95.7951 8.85481H95.823C95.9411 8.64032 96.116 8.4633 96.3446 8.32187C96.6184 8.15703 96.9229 8.07367 97.2582 8.07367C97.6799 8.07367 98.0315 8.20667 98.311 8.47361C98.6597 8.80049 98.8326 9.28846 98.8326 9.9366V12.5816Z" fill="white"/>
<path d="M105.608 8.90161H104.499V11.0465C104.499 11.5916 104.696 11.8641 105.086 11.8641C105.267 11.8641 105.417 11.8491 105.535 11.8182L105.561 12.5628C105.362 12.6359 105.101 12.6724 104.779 12.6724C104.381 12.6724 104.072 12.5544 103.848 12.3184C103.623 12.0824 103.512 11.6852 103.512 11.1279V8.90161H102.85V8.16636H103.512V7.35712L104.499 7.06677V8.16543H105.607V8.90161H105.608Z" fill="white"/>
<path d="M110.938 12.5816H109.93V10.0714C109.93 9.27999 109.626 8.8838 109.018 8.8838C108.552 8.8838 108.233 9.11327 108.058 9.57221C108.028 9.66868 108.011 9.7867 108.011 9.92532V12.5806H107.005V6.14044H108.011V8.80137H108.03C108.347 8.31714 108.801 8.0755 109.39 8.0755C109.807 8.0755 110.152 8.20849 110.426 8.47543C110.767 8.80793 110.938 9.30247 110.938 9.95623V12.5816Z" fill="white"/>
<path d="M116.435 10.1651C116.435 10.3412 116.422 10.4892 116.398 10.61H113.378C113.392 11.0464 113.536 11.3789 113.816 11.6093C114.071 11.8154 114.401 11.9184 114.804 11.9184C115.251 11.9184 115.658 11.8491 116.025 11.7096L116.183 12.3914C115.753 12.5731 115.248 12.664 114.663 12.664C113.962 12.664 113.409 12.4626 113.01 12.0599C112.608 11.6571 112.409 11.1167 112.409 10.4386C112.409 9.77264 112.595 9.21816 112.968 8.77608C113.358 8.30402 113.886 8.06799 114.551 8.06799C115.203 8.06799 115.697 8.30402 116.032 8.77608C116.302 9.15072 116.435 9.61435 116.435 10.1651ZM115.475 9.91126C115.482 9.61997 115.416 9.36896 115.28 9.15728C115.105 8.88472 114.839 8.74798 114.478 8.74798C114.15 8.74798 113.882 8.88098 113.677 9.14791C113.51 9.36053 113.411 9.61435 113.378 9.91126H115.475Z" fill="white"/>
</svg>
