<svg width="27" height="31" viewBox="0 0 27 31" fill="none" xmlns="http://www.w3.org/2000/svg">
<path d="M19.4665 3.14844C18.2009 4.29883 17.0558 5.50977 16.0915 6.78125C14.4643 4.48047 12.4152 2.17969 10.125 0C4.15848 5.57031 0 12.7148 0 17.0742C0 24.7637 6.02679 31 13.5 31C20.9129 31 27 24.7637 27 17.0742C27 13.8652 23.8661 7.20508 19.4665 3.14844ZM18.3214 23.7344C16.9955 24.7031 15.3683 25.1875 13.6205 25.1875C9.28125 25.1875 5.78571 22.3418 5.78571 17.6191C5.78571 15.3184 7.23214 13.2598 10.125 9.6875C10.5469 10.1719 16.0915 17.3164 16.0915 17.3164L19.6473 13.2598C19.8884 13.6836 20.1295 14.1074 20.3103 14.4707C21.9375 17.6191 21.2746 21.6758 18.3214 23.7344Z" fill="#EF5933"/>
</svg>
