<svg width="131" height="38" viewBox="0 0 131 38" fill="none" xmlns="http://www.w3.org/2000/svg">
<path d="M125.396 37.4647H5.48212C2.8452 37.4647 0.685547 35.3562 0.685547 32.7816V4.68308C0.685547 2.10855 2.8452 -6.88561e-06 5.48212 -6.88561e-06H125.396C128.033 -6.88561e-06 130.193 2.10855 130.193 4.68308V32.7816C130.193 35.3562 128.033 37.4647 125.396 37.4647Z" fill="black"/>
<path d="M125.396 0.750458C127.617 0.750458 129.424 2.51481 129.424 4.68308V32.7816C129.424 34.9499 127.617 36.7143 125.396 36.7143H5.48212C3.2613 36.7143 1.4542 34.9499 1.4542 32.7816V4.68308C1.4542 2.51481 3.2613 0.750458 5.48212 0.750458H125.396ZM125.396 -6.88561e-06H5.48212C2.8452 -6.88561e-06 0.685547 2.10855 0.685547 4.68308V32.7816C0.685547 35.3562 2.8452 37.4647 5.48212 37.4647H125.396C128.033 37.4647 130.193 35.3562 130.193 32.7816V4.68308C130.193 2.10855 128.033 -6.88561e-06 125.396 -6.88561e-06Z" fill="#A6A6A6"/>
<path d="M46.1737 9.59447C46.1737 10.3765 45.9339 11.0029 45.4614 11.47C44.9182 12.0238 44.2107 12.3025 43.3437 12.3025C42.5151 12.3025 41.8076 12.0191 41.2272 11.4607C40.6457 10.894 40.3555 10.1986 40.3555 9.36617C40.3555 8.53375 40.6457 7.83831 41.2272 7.27634C41.8076 6.7132 42.5151 6.42987 43.3437 6.42987C43.7562 6.42987 44.1496 6.513 44.5249 6.66754C44.899 6.82325 45.2036 7.03399 45.4242 7.2939L44.923 7.78797C44.5381 7.34424 44.0141 7.12531 43.3437 7.12531C42.7394 7.12531 42.2153 7.33137 41.7705 7.74699C41.3304 8.16378 41.1097 8.70351 41.1097 9.36617C41.1097 10.0288 41.3304 10.5732 41.7705 10.99C42.2153 11.401 42.7394 11.6117 43.3437 11.6117C43.9853 11.6117 44.5249 11.401 44.9506 10.9853C45.2312 10.7102 45.3907 10.3309 45.4326 9.84619H43.3437V9.16948H46.1305C46.1641 9.31583 46.1737 9.45749 46.1737 9.59447Z" fill="white" stroke="white" stroke-width="0.16" stroke-miterlimit="10"/>
<path d="M50.5946 7.24818H47.9769V9.02775H50.3368V9.70446H47.9769V11.484H50.5946V12.1736H47.2358V6.55859H50.5946V7.24818Z" fill="white" stroke="white" stroke-width="0.16" stroke-miterlimit="10"/>
<path d="M53.7154 12.1737H52.9743V7.24824H51.3687V6.55865H55.3222V7.24824H53.7154V12.1737Z" fill="white" stroke="white" stroke-width="0.16" stroke-miterlimit="10"/>
<path d="M58.1836 12.1736V6.55859H58.9235V12.1736H58.1836Z" fill="white" stroke="white" stroke-width="0.16" stroke-miterlimit="10"/>
<path d="M62.2027 12.1736H61.4676V7.24818H59.856V6.55859H63.8143V7.24818H62.2027V12.1736Z" fill="white" stroke="white" stroke-width="0.16" stroke-miterlimit="10"/>
<path d="M71.2992 11.4513C70.7321 12.0191 70.0294 12.3025 69.1911 12.3025C68.3482 12.3025 67.6455 12.0191 67.0783 11.4513C66.5123 10.8847 66.2305 10.1892 66.2305 9.36617C66.2305 8.54312 66.5123 7.84768 67.0783 7.28102C67.6455 6.7132 68.3482 6.42987 69.1911 6.42987C70.0246 6.42987 70.7273 6.7132 71.2945 7.28571C71.8652 7.85704 72.147 8.5478 72.147 9.36617C72.147 10.1892 71.8652 10.8847 71.2992 11.4513ZM67.6263 10.9807C68.0532 11.401 68.5724 11.6117 69.1911 11.6117C69.8051 11.6117 70.3291 11.401 70.7512 10.9807C71.1769 10.5604 71.3928 10.0206 71.3928 9.36617C71.3928 8.71171 71.1769 8.17198 70.7512 7.75167C70.3291 7.33137 69.8051 7.12063 69.1911 7.12063C68.5724 7.12063 68.0532 7.33137 67.6263 7.75167C67.2006 8.17198 66.9847 8.71171 66.9847 9.36617C66.9847 10.0206 67.2006 10.5604 67.6263 10.9807Z" fill="white" stroke="white" stroke-width="0.16" stroke-miterlimit="10"/>
<path d="M73.187 12.1737V6.55865H74.0864L76.8828 10.9256H76.9151L76.8828 9.84618V6.55865H77.6226V12.1737H76.8504L73.9221 7.59128H73.8897L73.9221 8.67541V12.1737H73.187Z" fill="white" stroke="white" stroke-width="0.16" stroke-miterlimit="10"/>
<path d="M66.0483 20.3738C63.7951 20.3738 61.9544 22.048 61.9544 24.3579C61.9544 26.6491 63.7951 28.3409 66.0483 28.3409C68.3062 28.3409 70.1469 26.6491 70.1469 24.3579C70.1469 22.048 68.3062 20.3738 66.0483 20.3738ZM66.0483 26.7721C64.8119 26.7721 63.7483 25.7757 63.7483 24.3579C63.7483 22.9214 64.8119 21.9426 66.0483 21.9426C67.2846 21.9426 68.353 22.9214 68.353 24.3579C68.353 25.7757 67.2846 26.7721 66.0483 26.7721ZM57.1159 20.3738C54.8579 20.3738 53.022 22.048 53.022 24.3579C53.022 26.6491 54.8579 28.3409 57.1159 28.3409C59.3726 28.3409 61.2097 26.6491 61.2097 24.3579C61.2097 22.048 59.3726 20.3738 57.1159 20.3738ZM57.1159 26.7721C55.8783 26.7721 54.8111 25.7757 54.8111 24.3579C54.8111 22.9214 55.8783 21.9426 57.1159 21.9426C58.3522 21.9426 59.4158 22.9214 59.4158 24.3579C59.4158 25.7757 58.3522 26.7721 57.1159 26.7721ZM46.4867 21.5949V23.2878H50.6273C50.5062 24.2338 50.1824 24.9293 49.686 25.414C49.0816 25.9993 48.1403 26.6491 46.4867 26.6491C43.9385 26.6491 41.9431 24.6413 41.9431 22.1534C41.9431 19.6655 43.9385 17.6576 46.4867 17.6576C47.8645 17.6576 48.867 18.1833 49.6068 18.8647L50.8288 17.6716C49.7939 16.7069 48.4173 15.9658 46.4867 15.9658C42.9924 15.9658 40.0557 18.7417 40.0557 22.1534C40.0557 25.565 42.9924 28.3409 46.4867 28.3409C48.3753 28.3409 49.7939 27.7368 50.9091 26.6035C52.0519 25.4877 52.408 23.9189 52.408 22.6521C52.408 22.2587 52.3744 21.897 52.3145 21.5949H46.4867ZM89.9508 22.9073C89.6138 22.0164 88.5741 20.3738 86.4565 20.3738C84.358 20.3738 82.6108 21.9883 82.6108 24.3579C82.6108 26.5894 84.34 28.3409 86.6579 28.3409C88.5322 28.3409 89.6138 27.2251 90.0587 26.5754L88.6677 25.6704C88.2036 26.333 87.5717 26.7721 86.6579 26.7721C85.7502 26.7721 85.099 26.3658 84.6817 25.565L90.139 23.3604L89.9508 22.9073ZM84.3867 24.2338C84.34 22.6978 85.6087 21.911 86.5176 21.911C87.2299 21.911 87.8343 22.2587 88.0357 22.7563L84.3867 24.2338ZM79.9511 28.0985H81.745V16.3908H79.9511V28.0985ZM77.0132 21.2612H76.9533C76.5503 20.7953 75.7817 20.3738 74.808 20.3738C72.7647 20.3738 70.8964 22.1253 70.8964 24.3708C70.8964 26.6035 72.7647 28.3409 74.808 28.3409C75.7817 28.3409 76.5503 27.9159 76.9533 27.4359H77.0132V28.0072C77.0132 29.5304 76.1798 30.3488 74.8356 30.3488C73.7396 30.3488 73.0596 29.5761 72.779 28.9263L71.219 29.562C71.6686 30.618 72.8594 31.9176 74.8356 31.9176C76.9389 31.9176 78.7136 30.7094 78.7136 27.7696V20.6161H77.0132V21.2612ZM74.9615 26.7721C73.7252 26.7721 72.6903 25.7617 72.6903 24.3708C72.6903 22.967 73.7252 21.9426 74.9615 21.9426C76.1798 21.9426 77.1403 22.967 77.1403 24.3708C77.1403 25.7617 76.1798 26.7721 74.9615 26.7721ZM98.3495 16.3908H94.059V28.0985H95.8481V23.6625H98.3495C100.337 23.6625 102.285 22.2587 102.285 20.0261C102.285 17.7946 100.332 16.3908 98.3495 16.3908ZM98.3963 22.0339H95.8481V18.0194H98.3963C99.7322 18.0194 100.495 19.1023 100.495 20.0261C100.495 20.9322 99.7322 22.0339 98.3963 22.0339ZM109.456 20.3515C108.163 20.3515 106.819 20.9088 106.266 22.144L107.854 22.7938C108.196 22.144 108.824 21.9333 109.488 21.9333C110.417 21.9333 111.358 22.4777 111.372 23.4389V23.5618C111.048 23.3792 110.355 23.1087 109.503 23.1087C107.793 23.1087 106.05 24.0278 106.05 25.7429C106.05 27.3118 107.451 28.3222 109.025 28.3222C110.229 28.3222 110.894 27.7918 111.311 27.1748H111.372V28.0798H113.1V23.5887C113.1 21.5129 111.513 20.3515 109.456 20.3515ZM109.24 26.7674C108.655 26.7674 107.84 26.484 107.84 25.7757C107.84 24.8696 108.856 24.5218 109.737 24.5218C110.524 24.5218 110.894 24.6916 111.372 24.9152C111.232 25.9993 110.276 26.7674 109.24 26.7674ZM119.396 20.6079L117.339 25.6832H117.278L115.152 20.6079H113.222L116.417 27.7005L114.594 31.6472H116.464L121.386 20.6079H119.396ZM103.268 28.0985H105.062V16.3908H103.268V28.0985Z" fill="white"/>
<path d="M10.6959 7.06096C10.4141 7.34897 10.251 7.79738 10.251 8.37808V29.0914C10.251 29.6721 10.4141 30.1205 10.6959 30.4085L10.7654 30.4717L22.6537 18.8694V18.5954L10.7654 6.99306L10.6959 7.06096Z" fill="url(#paint0_linear_381_919)"/>
<path d="M26.6122 22.7387L22.6538 18.8693V18.5953L26.617 14.7259L26.7057 14.7763L31.3992 17.3836C32.7386 18.1235 32.7386 19.3411 31.3992 20.0857L26.7057 22.6884L26.6122 22.7387Z" fill="url(#paint1_linear_381_919)"/>
<path d="M26.7055 22.6884L22.6536 18.7323L10.6958 30.4085C11.1407 30.8651 11.8662 30.9201 12.6912 30.4635L26.7055 22.6884Z" fill="url(#paint2_linear_381_919)"/>
<path d="M26.7055 14.7763L12.6912 7.00122C11.8662 6.5493 11.1407 6.60433 10.6958 7.06093L22.6536 18.7324L26.7055 14.7763Z" fill="url(#paint3_linear_381_919)"/>
<defs>
<linearGradient id="paint0_linear_381_919" x1="21.5982" y1="29.3071" x2="5.88396" y2="13.2121" gradientUnits="userSpaceOnUse">
<stop stop-color="#00A0FF"/>
<stop offset="0.0066" stop-color="#00A1FF"/>
<stop offset="0.2601" stop-color="#00BEFF"/>
<stop offset="0.5122" stop-color="#00D2FF"/>
<stop offset="0.7604" stop-color="#00DFFF"/>
<stop offset="1" stop-color="#00E3FF"/>
</linearGradient>
<linearGradient id="paint1_linear_381_919" x1="33.1433" y1="18.731" x2="9.93091" y2="18.731" gradientUnits="userSpaceOnUse">
<stop stop-color="#FFE000"/>
<stop offset="0.4087" stop-color="#FFBD00"/>
<stop offset="0.7754" stop-color="#FFA500"/>
<stop offset="1" stop-color="#FF9C00"/>
</linearGradient>
<linearGradient id="paint2_linear_381_919" x1="24.5022" y1="16.5818" x2="3.19251" y2="-5.24432" gradientUnits="userSpaceOnUse">
<stop stop-color="#FF3A44"/>
<stop offset="1" stop-color="#C31162"/>
</linearGradient>
<linearGradient id="paint3_linear_381_919" x1="7.68576" y1="37.2997" x2="17.2015" y2="27.5535" gradientUnits="userSpaceOnUse">
<stop stop-color="#32A071"/>
<stop offset="0.0685" stop-color="#2DA771"/>
<stop offset="0.4762" stop-color="#15CF74"/>
<stop offset="0.8009" stop-color="#06E775"/>
<stop offset="1" stop-color="#00F076"/>
</linearGradient>
</defs>
</svg>
