<svg width="592" height="436" viewBox="0 0 592 436" fill="none" xmlns="http://www.w3.org/2000/svg">
<path d="M202.654 5.57795C202.654 5.57795 219.039 2.40361 227.516 1.48664C231.215 1.08046 234.942 0.7616 238.698 0.530074C311.725 -4.07607 393.907 21.8305 436.316 59.6971C444.851 67.3131 483.682 106.776 453.082 161.005C433.758 195.243 514.711 227.943 543.479 267.041C616.619 366.445 544.619 433.609 543.954 434.897C496.732 434.897 43.028 435.04 42.6287 434.002L42.5616 433.871C42.5289 433.811 42.5063 433.746 42.4945 433.679C42.2324 433.158 -63.4979 287.208 100.871 185.605C165.192 145.849 147.99 75.3495 147.99 75.3495C141.625 43.5695 163.269 13.6052 202.654 5.57795Z" fill="#E8E8E8"/>
<path d="M189.588 174.732L147.548 183.601L156.423 225.614L198.463 216.745L189.588 174.732Z" fill="#EAEAEA"/>
<path d="M207.746 200.757L167.357 185.728L152.318 226.091L192.708 241.12L207.746 200.757Z" fill="white"/>
<path d="M175.27 67.4198H120.271C117.628 67.4198 115.485 69.5611 115.485 72.2026V129.828C115.485 132.47 117.628 134.611 120.271 134.611H175.27C177.913 134.611 180.056 132.47 180.056 129.828V72.2026C180.056 69.5611 177.913 67.4198 175.27 67.4198Z" fill="#ED9E8E"/>
<path d="M172.889 70.3291H122.655C120.241 70.3291 118.283 72.2849 118.283 74.6976V127.33C118.283 129.743 120.241 131.699 122.655 131.699H172.889C175.303 131.699 177.261 129.743 177.261 127.33V74.6976C177.261 72.2849 175.303 70.3291 172.889 70.3291Z" fill="#F9F9F9"/>
<path d="M146.435 76.4615C146.454 76.2009 146.548 75.9514 146.706 75.7436C146.865 75.5358 147.081 75.3788 147.327 75.2919C147.573 75.205 147.84 75.1919 148.094 75.2543C148.348 75.3167 148.578 75.4518 148.756 75.6431C148.934 75.8344 149.052 76.0734 149.096 76.3309C149.14 76.5884 149.107 76.8531 149.003 77.0925C148.898 77.3319 148.726 77.5355 148.507 77.6783C148.288 77.8211 148.032 77.8968 147.771 77.8963C147.403 77.8828 147.056 77.7241 146.806 77.4551C146.556 77.186 146.422 76.8286 146.435 76.4615Z" fill="#ED9E8E"/>
<path d="M157.227 78.4903C157.304 78.3277 157.414 78.183 157.55 78.0654C157.686 77.9478 157.846 77.86 158.018 77.8075C158.19 77.755 158.371 77.739 158.55 77.7606C158.729 77.7822 158.901 77.8409 159.056 77.9329C159.371 78.1342 159.6 78.4467 159.696 78.8083C159.792 79.17 159.748 79.5544 159.574 79.8856C159.497 80.0486 159.388 80.1937 159.251 80.3115C159.115 80.4294 158.955 80.5172 158.783 80.5695C158.611 80.6218 158.429 80.6373 158.25 80.615C158.071 80.5927 157.899 80.5331 157.745 80.44C157.43 80.2387 157.202 79.9269 157.106 79.5659C157.011 79.205 157.053 78.8212 157.227 78.4903Z" fill="#ED9E8E"/>
<path d="M166.476 86.3714C166.622 86.2696 166.789 86.1997 166.964 86.166C167.139 86.1324 167.32 86.1357 167.494 86.1759C167.668 86.216 167.831 86.2921 167.974 86.3992C168.117 86.5064 168.236 86.6421 168.323 86.7979C168.517 87.1184 168.583 87.4999 168.51 87.8672C168.436 88.2344 168.226 88.5605 167.924 88.7811C167.777 88.8824 167.61 88.9519 167.435 88.9853C167.26 89.0187 167.08 89.0153 166.906 88.9751C166.732 88.935 166.568 88.8591 166.425 88.7522C166.283 88.6454 166.164 88.51 166.076 88.3546C165.882 88.0341 165.816 87.6525 165.89 87.2853C165.963 86.918 166.173 86.5919 166.476 86.3714Z" fill="#ED9E8E"/>
<path d="M171.054 98.5661C171.342 98.5459 171.63 98.6129 171.879 98.7582C172.129 98.9036 172.329 99.1207 172.453 99.3812C172.578 99.6417 172.621 99.9336 172.577 100.219C172.533 100.504 172.404 100.77 172.207 100.981C172.01 101.192 171.754 101.339 171.473 101.403C171.191 101.467 170.897 101.444 170.628 101.338C170.359 101.233 170.128 101.049 169.966 100.81C169.803 100.572 169.716 100.29 169.716 100.001C169.704 99.6335 169.837 99.2761 170.088 99.0072C170.339 98.7382 170.686 98.5796 171.054 98.5661Z" fill="#ED9E8E"/>
<path d="M168.716 112.72C168.965 112.999 169.103 113.36 169.103 113.734C169.103 114.108 168.965 114.469 168.716 114.749C168.597 114.881 168.451 114.987 168.288 115.059C168.124 115.132 167.948 115.169 167.77 115.169C167.591 115.169 167.415 115.132 167.252 115.059C167.088 114.987 166.942 114.881 166.823 114.749C166.574 114.469 166.436 114.108 166.436 113.734C166.436 113.36 166.574 112.999 166.823 112.72C166.942 112.587 167.088 112.481 167.252 112.409C167.415 112.336 167.591 112.299 167.77 112.299C167.948 112.299 168.124 112.336 168.288 112.409C168.451 112.481 168.597 112.587 168.716 112.72Z" fill="#ED9E8E"/>
<path d="M160.318 121.752C160.567 122.031 160.705 122.392 160.705 122.767C160.705 123.141 160.567 123.502 160.318 123.781C160.198 123.914 160.052 124.02 159.889 124.092C159.726 124.165 159.55 124.202 159.371 124.202C159.193 124.202 159.016 124.165 158.853 124.092C158.69 124.02 158.544 123.914 158.425 123.781C158.175 123.502 158.038 123.141 158.038 122.767C158.038 122.392 158.175 122.031 158.425 121.752C158.544 121.62 158.69 121.514 158.853 121.441C159.016 121.369 159.193 121.331 159.371 121.331C159.55 121.331 159.726 121.369 159.889 121.441C160.052 121.514 160.198 121.62 160.318 121.752Z" fill="#ED9E8E"/>
<path d="M146.435 126.407C146.454 126.147 146.548 125.897 146.706 125.689C146.865 125.481 147.081 125.324 147.327 125.238C147.573 125.151 147.84 125.138 148.094 125.2C148.348 125.262 148.578 125.397 148.756 125.589C148.934 125.78 149.052 126.019 149.096 126.277C149.14 126.534 149.107 126.799 149.003 127.038C148.898 127.278 148.726 127.481 148.507 127.624C148.288 127.767 148.032 127.842 147.771 127.842C147.403 127.828 147.056 127.67 146.806 127.401C146.556 127.132 146.422 126.774 146.435 126.407Z" fill="#ED9E8E"/>
<path d="M138.275 78.4903C138.198 78.3277 138.088 78.183 137.951 78.0654C137.815 77.9478 137.656 77.86 137.484 77.8075C137.312 77.755 137.13 77.739 136.952 77.7606C136.773 77.7822 136.601 77.8409 136.446 77.9329C136.13 78.1342 135.902 78.4467 135.806 78.8083C135.71 79.17 135.753 79.5544 135.928 79.8856C136.004 80.0486 136.114 80.1937 136.251 80.3115C136.387 80.4294 136.546 80.5172 136.719 80.5695C136.891 80.6218 137.073 80.6373 137.251 80.615C137.43 80.5927 137.602 80.5331 137.757 80.44C138.071 80.2387 138.299 79.9269 138.395 79.5659C138.491 79.205 138.448 78.8212 138.275 78.4903Z" fill="#ED9E8E"/>
<path d="M129.026 86.3714C128.879 86.2696 128.713 86.1997 128.538 86.166C128.362 86.1324 128.182 86.1357 128.008 86.1759C127.834 86.216 127.67 86.2921 127.528 86.3992C127.385 86.5064 127.266 86.6421 127.179 86.7979C126.985 87.1184 126.918 87.4999 126.992 87.8672C127.066 88.2344 127.275 88.5605 127.578 88.7811C127.725 88.8824 127.891 88.9519 128.067 88.9853C128.242 89.0187 128.422 89.0153 128.596 88.9751C128.77 88.935 128.933 88.8591 129.076 88.7522C129.219 88.6454 129.338 88.51 129.425 88.3546C129.619 88.0341 129.686 87.6525 129.612 87.2853C129.538 86.918 129.329 86.5919 129.026 86.3714Z" fill="#ED9E8E"/>
<path d="M124.447 98.5661C124.159 98.5459 123.872 98.6129 123.622 98.7582C123.373 98.9036 123.173 99.1207 123.048 99.3812C122.924 99.6417 122.881 99.9336 122.925 100.219C122.969 100.504 123.097 100.77 123.294 100.981C123.491 101.192 123.747 101.339 124.029 101.403C124.311 101.467 124.605 101.444 124.874 101.338C125.143 101.233 125.373 101.049 125.536 100.81C125.699 100.572 125.786 100.29 125.786 100.001C125.798 99.6335 125.664 99.2761 125.413 99.0072C125.162 98.7382 124.815 98.5796 124.447 98.5661Z" fill="#ED9E8E"/>
<path d="M126.785 112.72C126.536 112.999 126.398 113.36 126.398 113.734C126.398 114.108 126.536 114.469 126.785 114.749C126.905 114.881 127.051 114.987 127.214 115.059C127.377 115.132 127.553 115.169 127.732 115.169C127.91 115.169 128.087 115.132 128.25 115.059C128.413 114.987 128.559 114.881 128.678 114.749C128.928 114.469 129.066 114.108 129.066 113.734C129.066 113.36 128.928 112.999 128.678 112.72C128.559 112.587 128.413 112.481 128.25 112.409C128.087 112.336 127.91 112.299 127.732 112.299C127.553 112.299 127.377 112.336 127.214 112.409C127.051 112.481 126.905 112.587 126.785 112.72Z" fill="#ED9E8E"/>
<path d="M135.184 121.752C134.934 122.031 134.797 122.392 134.797 122.767C134.797 123.141 134.934 123.502 135.184 123.781C135.303 123.914 135.449 124.02 135.612 124.092C135.775 124.165 135.952 124.202 136.13 124.202C136.309 124.202 136.485 124.165 136.648 124.092C136.811 124.02 136.957 123.914 137.077 123.781C137.326 123.502 137.464 123.141 137.464 122.767C137.464 122.392 137.326 122.031 137.077 121.752C136.957 121.62 136.811 121.514 136.648 121.441C136.485 121.369 136.309 121.331 136.13 121.331C135.952 121.331 135.775 121.369 135.612 121.441C135.449 121.514 135.303 121.62 135.184 121.752Z" fill="#ED9E8E"/>
<path d="M147.411 100.001C147.429 99.7405 147.523 99.4912 147.682 99.2834C147.84 99.0757 148.055 98.9187 148.302 98.8317C148.548 98.7446 148.814 98.7314 149.068 98.7935C149.322 98.8557 149.552 98.9905 149.73 99.1815C149.908 99.3725 150.027 99.6113 150.071 99.8686C150.115 100.126 150.083 100.39 149.979 100.63C149.875 100.869 149.703 101.073 149.484 101.216C149.266 101.359 149.01 101.436 148.749 101.436C148.381 101.422 148.034 101.264 147.783 100.995C147.533 100.726 147.399 100.368 147.411 100.001Z" fill="#ED9E8E"/>
<path d="M148.932 82.076H148.566V99.9979H148.932V82.076Z" fill="#ED9E8E"/>
<path d="M148.917 100.437L148.243 99.5135L157.102 92.0529L157.779 92.979L148.917 100.437Z" fill="#ED9E8E"/>
<path d="M265.377 70.5941L263.6 69.6193C262.689 69.119 262.014 68.2778 261.723 67.2806C261.432 66.2833 261.549 65.2114 262.049 64.3003L270.221 49.4125C270.721 48.5016 271.563 47.8264 272.561 47.5351C273.559 47.2437 274.632 47.3602 275.544 47.8589L278.086 49.2541C278.181 49.2988 278.266 49.3624 278.335 49.441C278.404 49.5196 278.457 49.6116 278.489 49.7112C278.522 49.8109 278.534 49.9162 278.524 50.0205C278.514 50.1249 278.483 50.2261 278.432 50.318C278.382 50.4099 278.313 50.4905 278.23 50.5548C278.148 50.6191 278.052 50.6658 277.951 50.692C277.849 50.7182 277.743 50.7233 277.64 50.7071C277.536 50.6909 277.437 50.6536 277.348 50.5976L274.806 49.2054C274.251 48.9012 273.598 48.8298 272.99 49.0069C272.382 49.184 271.87 49.5951 271.566 50.1498L263.384 65.0375C263.081 65.5925 263.01 66.2447 263.188 66.8515C263.365 67.4583 263.775 67.9704 264.329 68.2758L266.106 69.2476C266.381 69.3981 266.682 69.4931 266.993 69.5271C267.305 69.5611 267.62 69.5335 267.92 69.4458C268.221 69.3581 268.501 69.2121 268.746 69.016C268.99 68.82 269.193 68.5777 269.343 68.3032L274.769 58.4207C274.814 58.3259 274.878 58.2412 274.956 58.1719C275.035 58.1026 275.127 58.0501 275.227 58.0177C275.327 57.9853 275.432 57.9736 275.536 57.9834C275.641 57.9932 275.742 58.0243 275.834 58.0747C275.926 58.1251 276.007 58.1938 276.071 58.2766C276.135 58.3593 276.182 58.4544 276.208 58.5559C276.234 58.6574 276.24 58.7631 276.223 58.8667C276.207 58.9702 276.17 59.0694 276.114 59.1579L270.7 69.0405C270.199 69.9507 269.358 70.6255 268.36 70.9167C267.362 71.2079 266.29 71.0919 265.377 70.5941Z" fill="#CBCBCB"/>
<path d="M257.793 86.2404L254.611 84.4948C251.654 82.8741 250.648 78.9839 252.401 75.8187L264.686 53.4338C264.789 53.2649 264.953 53.1422 265.144 53.0914C265.335 53.0406 265.539 53.0655 265.712 53.1609C265.886 53.2564 266.015 53.415 266.075 53.6038C266.134 53.7925 266.118 53.9968 266.03 54.174L253.745 76.5559C252.416 78.9778 253.135 81.9389 255.348 83.1513L258.531 84.8969C260.744 86.1155 263.628 85.1254 264.957 82.7005L278.952 57.2052C280.281 54.7833 279.562 51.8253 277.349 50.6098C277.254 50.5651 277.169 50.5015 277.099 50.4229C277.03 50.3443 276.978 50.2523 276.945 50.1526C276.913 50.053 276.901 49.9477 276.911 49.8434C276.921 49.739 276.952 49.6378 277.002 49.5459C277.053 49.454 277.121 49.3734 277.204 49.3091C277.287 49.2448 277.382 49.1981 277.484 49.1719C277.585 49.1457 277.691 49.1405 277.795 49.1568C277.898 49.173 277.998 49.2103 278.086 49.2663C281.043 50.887 282.049 54.7772 280.296 57.9424L266.301 83.4408C264.567 86.5907 260.75 87.8489 257.793 86.2404Z" fill="#CBCBCB"/>
<path d="M390.166 134.236L391.572 132.78C392.294 132.033 393.284 131.603 394.323 131.584C395.363 131.565 396.367 131.959 397.117 132.68L409.344 144.472C410.091 145.195 410.521 146.184 410.539 147.223C410.557 148.262 410.162 149.265 409.441 150.014L407.426 152.097C407.357 152.17 407.273 152.228 407.181 152.268C407.088 152.308 406.989 152.33 406.889 152.332C406.788 152.333 406.688 152.315 406.594 152.279C406.501 152.242 406.415 152.187 406.343 152.117C406.27 152.047 406.212 151.964 406.172 151.872C406.132 151.78 406.11 151.68 406.108 151.58C406.106 151.479 406.124 151.379 406.161 151.286C406.198 151.192 406.253 151.107 406.323 151.034L408.338 148.947C408.777 148.492 409.018 147.881 409.006 147.249C408.995 146.616 408.732 146.014 408.277 145.575L396.05 133.782C395.594 133.344 394.982 133.104 394.35 133.116C393.717 133.127 393.115 133.389 392.675 133.843L391.27 135.3C390.831 135.755 390.59 136.366 390.602 136.998C390.613 137.631 390.875 138.233 391.331 138.672L399.446 146.501C399.518 146.571 399.576 146.654 399.616 146.747C399.657 146.839 399.678 146.938 399.68 147.039C399.682 147.139 399.664 147.239 399.627 147.333C399.59 147.426 399.535 147.512 399.465 147.584C399.396 147.657 399.312 147.714 399.22 147.755C399.128 147.795 399.028 147.816 398.928 147.818C398.827 147.82 398.727 147.802 398.633 147.765C398.54 147.729 398.454 147.674 398.382 147.604L390.264 139.775C389.517 139.053 389.087 138.064 389.069 137.026C389.051 135.987 389.445 134.984 390.166 134.236Z" fill="#EF5933"/>
<path d="M377.064 122.815L379.585 120.205C381.927 117.768 385.944 117.847 388.542 120.354L406.923 138.081C406.996 138.151 407.054 138.234 407.094 138.326C407.134 138.419 407.156 138.518 407.158 138.618C407.16 138.719 407.142 138.819 407.105 138.912C407.068 139.006 407.013 139.091 406.943 139.164C406.873 139.236 406.79 139.294 406.698 139.334C406.605 139.375 406.506 139.396 406.405 139.398C406.305 139.4 406.205 139.382 406.111 139.345C406.018 139.308 405.932 139.253 405.86 139.184L387.478 121.457C385.487 119.537 382.442 119.452 380.689 121.268L378.168 123.879C376.415 125.706 376.607 128.732 378.598 130.651L399.534 150.845C401.525 152.765 404.57 152.85 406.323 151.034C406.393 150.962 406.476 150.904 406.568 150.864C406.661 150.823 406.76 150.802 406.861 150.8C406.961 150.798 407.061 150.816 407.155 150.853C407.249 150.89 407.334 150.945 407.407 151.014C407.479 151.084 407.537 151.168 407.577 151.26C407.617 151.352 407.639 151.451 407.641 151.552C407.643 151.652 407.625 151.752 407.588 151.846C407.551 151.939 407.496 152.025 407.426 152.097C405.088 154.534 401.067 154.455 398.47 151.948L377.531 131.754C374.934 129.249 374.723 125.234 377.064 122.815Z" fill="#EF5933"/>
<path d="M111.528 282.593C111.528 282.593 109.019 241.162 101.85 228.184H139.598V282.507L111.528 282.593Z" fill="#D9D9D9"/>
<path d="M130.404 282.593C130.404 282.593 127.895 241.162 120.725 228.184H158.474V282.507L130.404 282.593Z" fill="#CDCDCD"/>
<path d="M181.141 205.891H144.606V323.673H181.141V205.891Z" fill="#383333"/>
<path d="M269.246 205.891H181.141V323.673H269.246V205.891Z" fill="#2C2827"/>
<path d="M162.872 226.694C166.24 226.694 168.969 223.967 168.969 220.602C168.969 217.237 166.24 214.509 162.872 214.509C159.505 214.509 156.776 217.237 156.776 220.602C156.776 223.967 159.505 226.694 162.872 226.694Z" fill="#F9F9F9"/>
<path d="M162.872 224.909C165.253 224.909 167.183 222.981 167.183 220.602C167.183 218.223 165.253 216.294 162.872 216.294C160.492 216.294 158.562 218.223 158.562 220.602C158.562 222.981 160.492 224.909 162.872 224.909Z" fill="#2C2827"/>
<path d="M171.6 235.282H154.416V266.304H171.6V235.282Z" fill="#ED9E8E"/>
<path d="M277.806 259.924H207.696V282.507H277.806V259.924Z" fill="#E8E8E8"/>
<path d="M347.916 259.924H277.806V282.507H347.916V259.924Z" fill="#E0E0E0"/>
<path d="M225.191 270.971H207.696V271.461H225.191V270.971Z" fill="#2C2827"/>
<path d="M277.806 264.022H229.479V264.512H277.806V264.022Z" fill="#2C2827"/>
<path d="M238.625 277.051H207.696V277.542H238.625V277.051Z" fill="#2C2827"/>
<path d="M256.062 237.339H185.952V259.921H256.062V237.339Z" fill="#EAEAEA"/>
<path d="M326.171 237.339H256.062V259.921H326.171V237.339Z" fill="#F4F4F4"/>
<path d="M203.446 248.388H185.952V248.878H203.446V248.388Z" fill="#2C2827"/>
<path d="M256.061 241.439H207.735V241.929H256.061V241.439Z" fill="#2C2827"/>
<path d="M216.884 254.468H185.952V254.959H216.884V254.468Z" fill="#2C2827"/>
<path opacity="0.5" d="M295.304 173.672H225.194V196.255H295.304V173.672Z" fill="#DFDFDF"/>
<path d="M365.41 173.672H295.3V196.255H365.41V173.672Z" fill="#D6D6D6"/>
<path d="M242.688 184.718H225.194V185.209H242.688V184.718Z" fill="#2C2827"/>
<path d="M295.303 177.769H246.977V178.26H295.303V177.769Z" fill="#2C2827"/>
<path d="M256.123 190.485H225.194V190.975H256.123V190.485Z" fill="#2C2827"/>
<path d="M273.559 151.089H203.449V173.672H273.559V151.089Z" fill="white"/>
<path d="M343.666 151.089H273.556V173.672H343.666V151.089Z" fill="#F2F2F2"/>
<path d="M220.944 162.135H203.449V162.626H220.944V162.135Z" fill="#2C2827"/>
<path d="M287.436 162.135H269.941V162.626H287.436V162.135Z" fill="#2C2827"/>
<path d="M311.801 155.186H263.475V155.677H311.801V155.186Z" fill="#2C2827"/>
<path d="M234.378 168.216H203.449V168.706H234.378V168.216Z" fill="#2C2827"/>
<path d="M282.427 237.342H352.537V196.227H282.427V237.342Z" fill="#EAEAEA"/>
<path d="M212.32 237.342H282.43V196.227H212.32V237.342Z" fill="white"/>
<path d="M352.537 216.452H335.042V217.113H352.537V216.452Z" fill="#2C2827"/>
<path d="M330.753 203.953H234.378V204.313H330.753V203.953Z" fill="#383333"/>
<path d="M352.537 227.52H321.608V228.181H352.537V227.52Z" fill="#2C2827"/>
<path d="M295.303 211.319H262.076V211.679H295.303V211.319Z" fill="#383333"/>
<path d="M382.734 282.593H176.316V435.001H382.734V282.593Z" fill="#E75322"/>
<path d="M272.117 282.593H108.456V435.001H272.117V282.593Z" fill="#EF5933"/>
<path d="M159.76 297.328H202.154C203.419 297.328 204.632 297.83 205.527 298.725C206.422 299.619 206.924 300.831 206.924 302.096V302.705C206.924 303.969 206.422 305.182 205.527 306.076C204.632 306.97 203.419 307.473 202.154 307.473H159.76C158.494 307.473 157.28 306.97 156.384 306.075C155.489 305.181 154.986 303.967 154.986 302.702V302.093C154.988 300.829 155.491 299.617 156.386 298.723C157.282 297.83 158.495 297.328 159.76 297.328Z" fill="#2C2827"/>
<path d="M212.994 337.709L174.346 330.927L167.56 369.549L206.207 376.331L212.994 337.709Z" fill="white"/>
<path d="M212.994 337.71L174.346 330.927L173.25 337.168L211.897 343.951L212.994 337.71Z" fill="#ED9E8E"/>
<path d="M252.622 299.715L214.671 309.679L224.642 347.605L262.593 337.641L252.622 299.715Z" fill="#FFB93E"/>
<path d="M252.622 299.72L214.671 309.684L216.282 315.812L254.233 305.848L252.622 299.72Z" fill="#EF8900"/>
<path d="M109.44 240.205C108.379 234.329 105.303 228.324 105.273 228.263L105.578 228.102C105.608 228.16 108.708 234.213 109.775 240.141L109.44 240.205Z" fill="#383333"/>
<path d="M118.689 255.011C116.479 239.169 111.839 228.364 111.793 228.257L112.123 228.114C112.168 228.221 116.826 239.081 119.046 254.959L118.689 255.011Z" fill="#383333"/>
<path d="M511.69 320.091H356.189V434.906H511.69V320.091Z" fill="#C9C9C9"/>
<path d="M428.359 320.091H305.067V434.906H428.359V320.091Z" fill="#E0E0E0"/>
<path d="M375.653 331.183H343.715C341.73 331.183 340.121 332.791 340.121 334.774V335.24C340.121 337.224 341.73 338.832 343.715 338.832H375.653C377.638 338.832 379.247 337.224 379.247 335.24V334.774C379.247 332.791 377.638 331.183 375.653 331.183Z" fill="#383333"/>
<path d="M428.359 300.554H299.022V325.848H428.359V300.554Z" fill="#EAEAEA"/>
<path d="M515.568 300.554H428.359V325.848H515.568V300.554Z" fill="#D6D6D6"/>
<path d="M411.929 344.043L372.38 354.427L382.77 393.95L422.319 383.566L411.929 344.043Z" fill="#EF5933"/>
<path d="M411.928 344.046L372.379 354.429L374.058 360.817L413.607 350.434L411.928 344.046Z" fill="#E75322"/>
<path d="M385.069 249.009L417.495 222.923L465.602 228.799V249.009H385.069Z" fill="#E75322"/>
<path d="M417.495 249.137V222.798H336.963V249.137H417.495Z" fill="#EF5933"/>
<path d="M407.435 231.858C408.26 231.857 409.066 232.101 409.752 232.559C410.437 233.016 410.972 233.666 411.288 234.427C411.604 235.189 411.686 236.026 411.526 236.834C411.365 237.642 410.968 238.385 410.385 238.967C409.802 239.55 409.059 239.947 408.251 240.107C407.442 240.268 406.604 240.185 405.842 239.869C405.081 239.554 404.43 239.02 403.972 238.334C403.515 237.649 403.271 236.843 403.271 236.019C403.271 234.916 403.71 233.857 404.491 233.077C405.272 232.296 406.331 231.858 407.435 231.858Z" fill="#F9F9F9"/>
<path d="M407.436 233.701C407.896 233.701 408.346 233.838 408.729 234.093C409.112 234.349 409.411 234.713 409.587 235.138C409.764 235.563 409.81 236.031 409.72 236.483C409.63 236.934 409.408 237.349 409.082 237.674C408.757 238 408.342 238.221 407.89 238.311C407.438 238.401 406.97 238.355 406.544 238.179C406.119 238.003 405.755 237.704 405.499 237.322C405.243 236.939 405.106 236.489 405.106 236.029C405.107 235.412 405.353 234.82 405.79 234.384C406.226 233.947 406.818 233.702 407.436 233.701Z" fill="#2C2827"/>
<path d="M397.4 241.99V230.256H372.477V241.99H397.4Z" fill="#EAEAEA"/>
<path d="M421.61 274.846H341.801V300.554H421.61V274.846Z" fill="#F9F9F9"/>
<path d="M501.417 274.846H421.607V300.554H501.417V274.846Z" fill="#D3D3D3"/>
<path d="M361.716 287.421H341.801V287.979H361.716V287.421Z" fill="#383333"/>
<path d="M421.607 279.51H366.596V280.067H421.607V279.51Z" fill="#383333"/>
<path d="M377.009 294.343H341.801V294.9H377.009V294.343Z" fill="#383333"/>
<path d="M396.857 249.137H317.048V274.846H396.857V249.137Z" fill="#EAEAEA"/>
<path d="M476.664 249.137H396.854V274.846H476.664V249.137Z" fill="#F4F4F4"/>
<path d="M336.963 261.713H317.048V262.27H336.963V261.713Z" fill="#2C2827"/>
<path d="M396.857 253.801H341.846V254.359H396.857V253.801Z" fill="#2C2827"/>
<path d="M352.257 268.634H317.048V269.192H352.257V268.634Z" fill="#2C2827"/>
<path d="M286.856 417.255C287.298 418.319 288.112 423.958 289.847 428.655C290.892 431.488 292.264 433.98 294.087 434.955C298.964 437.554 307.561 434.041 307.561 434.041C307.561 434.041 321.846 436.497 323.281 435.909C324.717 435.321 327.308 413.834 327.308 413.834C327.308 413.834 316.767 401.606 315.785 401.219C314.804 400.832 306.381 404.692 304.982 404.613C303.583 404.534 295.694 398.743 293.422 399.961C291.151 401.18 286.146 415.556 286.856 417.255Z" fill="white"/>
<path d="M304.979 404.613C304.979 404.613 307.165 410.401 307.835 410.928C308.506 411.455 315.783 401.219 315.783 401.219C314.804 400.832 306.366 404.692 304.979 404.613Z" fill="#EAEAEA"/>
<path d="M293.276 405.576C293.276 405.576 302.97 415.595 302.787 416.473C302.604 417.35 291.34 423.05 290.953 422.806C290.566 422.562 293.697 415.525 293.627 414.304C293.557 413.082 293.276 405.576 293.276 405.576Z" fill="#EAEAEA"/>
<path d="M286.856 417.256C287.298 418.319 288.112 423.958 289.847 428.655L289.213 418.045L293.419 399.955C291.148 401.186 286.146 415.556 286.856 417.256Z" fill="#EAEAEA"/>
<path d="M307.558 434.041C307.558 434.041 321.843 436.497 323.279 435.909C324.714 435.321 327.306 413.834 327.306 413.834C327.306 413.834 323.565 424.722 323.465 425.271C323.364 425.819 319.008 424.357 319.008 424.357L307.558 434.041Z" fill="#EAEAEA"/>
<path d="M323.559 413.627L321.644 419.26L318.349 419.077L320.928 416.811L323.559 413.627Z" fill="#EAEAEA"/>
<path d="M367.639 422.154C367.983 422.876 368.614 426.69 369.961 429.892C370.772 431.817 371.839 433.52 373.254 434.197C377.028 436.024 383.704 433.731 383.704 433.731C383.704 433.731 394.787 435.558 395.897 435.174C397.007 434.791 399.012 420.299 399.012 420.299C399.012 420.299 390.831 411.912 390.072 411.638C389.313 411.364 382.777 413.877 381.692 413.81C380.606 413.743 374.485 409.734 372.723 410.532C370.961 411.33 367.081 420.994 367.639 422.154Z" fill="white"/>
<path d="M381.686 413.816C381.686 413.816 383.38 417.746 383.902 418.118C384.423 418.489 390.066 411.644 390.066 411.644C389.307 411.373 382.771 413.883 381.686 413.816Z" fill="#D3D3D3"/>
<path d="M372.608 414.337C372.608 414.337 380.131 421.222 379.991 421.813C379.851 422.404 371.111 426.127 370.812 425.959C370.513 425.792 372.946 421.07 372.882 420.241C372.818 419.412 372.608 414.337 372.608 414.337Z" fill="#E0E0E0"/>
<path d="M367.639 422.154C367.983 422.876 368.614 426.69 369.962 429.892L369.465 422.712L372.723 410.526C370.955 411.339 367.081 420.993 367.639 422.154Z" fill="#D3D3D3"/>
<path d="M383.695 433.737C383.695 433.737 394.778 435.564 395.888 435.181C396.998 434.797 399.004 420.305 399.004 420.305C399.004 420.305 396.105 427.616 396.031 427.991C395.958 428.366 392.572 427.327 392.572 427.327L383.695 433.737Z" fill="#E0E0E0"/>
<path d="M396.101 420.122L394.62 423.909L392.062 423.747L394.062 422.242L396.101 420.122Z" fill="#E0E0E0"/>
<path d="M384.143 210.817C384.484 211.542 385.118 215.356 386.465 218.557C387.276 220.483 388.343 222.183 389.758 222.862C393.532 224.69 400.208 222.396 400.208 222.396C400.208 222.396 411.292 224.224 412.401 223.84C413.511 223.456 415.517 208.964 415.517 208.964C415.517 208.964 407.335 200.578 406.576 200.303C405.817 200.029 399.281 202.543 398.196 202.476C397.11 202.409 390.986 198.4 389.227 199.198C387.468 199.996 383.594 209.659 384.143 210.817Z" fill="white"/>
<path d="M398.199 202.482C398.199 202.482 399.894 206.412 400.415 206.783C400.936 207.155 406.579 200.31 406.579 200.31C405.817 200.035 399.284 202.549 398.199 202.482Z" fill="#D3D3D3"/>
<path d="M389.121 202.997C389.121 202.997 396.644 209.881 396.501 210.472C396.357 211.063 387.624 214.786 387.322 214.619C387.02 214.451 389.456 209.726 389.395 208.9C389.334 208.075 389.121 202.997 389.121 202.997Z" fill="#E0E0E0"/>
<path d="M384.143 210.817C384.484 211.542 385.118 215.356 386.465 218.557L385.969 211.377L389.227 199.192C387.468 200.005 383.594 209.659 384.143 210.817Z" fill="#D3D3D3"/>
<path d="M400.208 222.414C400.208 222.414 411.291 224.242 412.401 223.858C413.511 223.474 415.517 208.983 415.517 208.983C415.517 208.983 412.618 216.294 412.541 216.669C412.465 217.043 409.084 216.005 409.084 216.005L400.208 222.414Z" fill="#E0E0E0"/>
<path d="M412.615 208.788L411.13 212.571L408.575 212.41L410.575 210.908L412.615 208.788Z" fill="#E0E0E0"/>
<path d="M590.19 432.382H1.8104C0.905199 432.382 0 433.286 0 434.191C0 435.095 0.905199 436 1.8104 436H590.19C591.095 436 592 435.095 592 434.191C592 433.286 591.095 432.382 590.19 432.382Z" fill="#9B9B9B"/>
</svg>
