<svg width="163" height="24" viewBox="0 0 163 24" fill="none" xmlns="http://www.w3.org/2000/svg">
<path d="M34.6781 4.8001C37.2362 4.8001 39.1929 5.26598 40.5482 6.19775C41.9204 7.12951 42.6065 8.58645 42.6065 10.5686C42.6065 11.602 42.4202 12.4914 42.0475 13.2368C41.6917 13.9653 41.1665 14.5667 40.4719 15.041C39.7774 15.4985 38.9303 15.8373 37.9308 16.0575C36.9312 16.2777 35.7877 16.3879 34.5002 16.3879H32.8992V22.5883H29.6974V5.2321C30.4428 5.06269 31.2644 4.95257 32.1623 4.90175C33.0771 4.83398 33.9157 4.8001 34.6781 4.8001ZM34.9068 7.56998C34.0936 7.56998 33.4244 7.59539 32.8992 7.64622V13.6434H34.4494C35.991 13.6434 37.1769 13.4316 38.007 13.0081C38.8371 12.5676 39.2522 11.746 39.2522 10.5432C39.2522 9.96716 39.1421 9.48433 38.9218 9.09469C38.7016 8.70504 38.3967 8.4001 38.007 8.17986C37.6174 7.95963 37.1515 7.80716 36.6094 7.72245C36.0842 7.6208 35.5167 7.56998 34.9068 7.56998Z" fill="black"/>
<path d="M48.732 19.9455C48.9183 19.9625 49.164 19.9794 49.4689 19.9963C49.7738 19.9963 50.1889 19.9963 50.7141 19.9963C52.8656 19.9963 54.4666 19.4542 55.5169 18.37C56.5842 17.2688 57.1178 15.7356 57.1178 13.7705C57.1178 11.7714 56.6011 10.2382 55.5677 9.17092C54.5343 8.10363 52.9334 7.56998 50.7649 7.56998C49.8162 7.56998 49.1385 7.59539 48.732 7.64622V19.9455ZM60.4722 13.7705C60.4722 15.2952 60.235 16.625 59.7607 17.7601C59.2863 18.8782 58.6087 19.8185 57.7277 20.5808C56.8637 21.3262 55.8134 21.8853 54.5767 22.258C53.3569 22.6137 52.0016 22.7916 50.5108 22.7916C49.7993 22.7916 48.9946 22.7577 48.0967 22.69C47.1988 22.6392 46.3433 22.5206 45.5301 22.3342V5.2321C46.3433 5.04575 47.2073 4.92716 48.1221 4.87633C49.0369 4.82551 49.8501 4.8001 50.5616 4.8001C52.0355 4.8001 53.3823 4.97798 54.6021 5.33375C55.8218 5.67257 56.8637 6.21469 57.7277 6.9601C58.6087 7.68857 59.2863 8.62033 59.7607 9.75539C60.235 10.8735 60.4722 12.2119 60.4722 13.7705Z" fill="black"/>
<path d="M63.9685 22.5883V4.97798H75.0989V7.69704H67.1704V12.1949H74.2094V14.914H67.1704V22.5883H63.9685Z" fill="black"/>
<path d="M78.5811 22.5882V4.97786H88.7458V6.47715H80.3091V12.6014H87.8309V14.0753H80.3091V21.0889H89.4065V22.5882H78.5811Z" fill="black"/>
<path d="M106.653 13.7703C106.653 15.2781 106.416 16.591 105.942 17.7091C105.467 18.8273 104.798 19.759 103.934 20.5044C103.087 21.2499 102.071 21.8089 100.885 22.1816C99.6988 22.5543 98.3943 22.7407 96.9712 22.7407C96.2597 22.7407 95.5143 22.6983 94.735 22.6136C93.9557 22.5459 93.2696 22.4357 92.6766 22.2833V5.30821C93.2696 5.1388 93.9557 5.02021 94.735 4.95244C95.5143 4.86774 96.2597 4.82538 96.9712 4.82538C98.3943 4.82538 99.6988 5.01174 100.885 5.38444C102.071 5.75715 103.087 6.31621 103.934 7.06162C104.798 7.80703 105.467 8.7388 105.942 9.85691C106.416 10.975 106.653 12.2795 106.653 13.7703ZM94.4046 21.0635C94.5063 21.0804 94.7604 21.1143 95.167 21.1651C95.5905 21.216 96.2597 21.2414 97.1745 21.2414C98.4451 21.2414 99.5548 21.072 100.503 20.7331C101.452 20.3774 102.248 19.8776 102.892 19.2339C103.536 18.5901 104.019 17.8108 104.341 16.896C104.663 15.9642 104.823 14.9223 104.823 13.7703C104.823 12.6183 104.663 11.5849 104.341 10.6701C104.019 9.75527 103.536 8.97597 102.892 8.33221C102.248 7.68844 101.452 7.19715 100.503 6.85833C99.5548 6.50256 98.4451 6.32468 97.1745 6.32468C96.2597 6.32468 95.5905 6.35009 95.167 6.40091C94.7604 6.45174 94.5063 6.48562 94.4046 6.50256V21.0635Z" fill="black"/>
<path d="M110.519 4.97786H112.247V22.5882H110.519V4.97786Z" fill="black"/>
<path d="M128.004 4.97786V6.47715H122.363V22.5882H120.635V6.47715H114.993V4.97786H128.004Z" fill="black"/>
<path d="M146.154 13.7703C146.154 15.2781 145.933 16.608 145.493 17.76C145.053 18.912 144.451 19.8776 143.689 20.6569C142.943 21.4193 142.071 21.9953 141.071 22.3849C140.072 22.7746 139.013 22.9694 137.895 22.9694C136.777 22.9694 135.718 22.7746 134.718 22.3849C133.719 21.9953 132.838 21.4193 132.076 20.6569C131.33 19.8776 130.737 18.912 130.297 17.76C129.856 16.608 129.636 15.2781 129.636 13.7703C129.636 12.2626 129.856 10.9411 130.297 9.80609C130.737 8.65409 131.33 7.69691 132.076 6.93456C132.838 6.15527 133.719 5.5708 134.718 5.18115C135.718 4.7915 136.777 4.59668 137.895 4.59668C139.013 4.59668 140.072 4.7915 141.071 5.18115C142.071 5.5708 142.943 6.15527 143.689 6.93456C144.451 7.69691 145.053 8.65409 145.493 9.80609C145.933 10.9411 146.154 12.2626 146.154 13.7703ZM144.324 13.7703C144.324 12.5844 144.172 11.5256 143.867 10.5939C143.562 9.64515 143.13 8.84044 142.571 8.17974C142.012 7.51903 141.334 7.01927 140.538 6.68044C139.758 6.32468 138.877 6.1468 137.895 6.1468C136.912 6.1468 136.023 6.32468 135.227 6.68044C134.447 7.01927 133.778 7.51903 133.219 8.17974C132.66 8.84044 132.228 9.64515 131.923 10.5939C131.618 11.5256 131.466 12.5844 131.466 13.7703C131.466 14.9562 131.618 16.0235 131.923 16.9722C132.228 17.904 132.66 18.7002 133.219 19.3609C133.778 20.0216 134.447 20.5299 135.227 20.8856C136.023 21.2414 136.912 21.4193 137.895 21.4193C138.877 21.4193 139.758 21.2414 140.538 20.8856C141.334 20.5299 142.012 20.0216 142.571 19.3609C143.13 18.7002 143.562 17.904 143.867 16.9722C144.172 16.0235 144.324 14.9562 144.324 13.7703Z" fill="black"/>
<path d="M161.767 10.2635C161.767 11.5849 161.42 12.6268 160.725 13.3891C160.031 14.1515 159.116 14.7021 157.981 15.0409C158.252 15.3797 158.599 15.8371 159.023 16.4131C159.463 16.9891 159.912 17.6244 160.369 18.319C160.827 18.9967 161.276 19.7082 161.716 20.4536C162.157 21.199 162.529 21.9106 162.834 22.5882H160.979C160.624 21.9106 160.234 21.2329 159.81 20.5553C159.404 19.8776 158.98 19.2254 158.54 18.5986C158.116 17.9548 157.701 17.3619 157.295 16.8197C156.888 16.2776 156.532 15.8033 156.227 15.3967C155.685 15.4475 155.143 15.4729 154.601 15.4729H151.755V22.5882H150.027V5.30821C150.637 5.1388 151.348 5.02021 152.161 4.95244C152.992 4.86774 153.754 4.82538 154.448 4.82538C156.871 4.82538 158.692 5.2828 159.912 6.19762C161.149 7.11244 161.767 8.46774 161.767 10.2635ZM154.652 6.32468C154.008 6.32468 153.44 6.35009 152.949 6.40091C152.475 6.4348 152.077 6.46868 151.755 6.50256V13.999H154.144C154.94 13.999 155.694 13.9651 156.405 13.8974C157.117 13.8127 157.735 13.6433 158.26 13.3891C158.785 13.1181 159.2 12.7369 159.505 12.2456C159.81 11.7543 159.963 11.0851 159.963 10.2381C159.963 9.4588 159.81 8.81503 159.505 8.3068C159.2 7.79856 158.802 7.40044 158.311 7.11244C157.82 6.8075 157.252 6.60421 156.608 6.50256C155.982 6.38397 155.329 6.32468 154.652 6.32468Z" fill="black"/>
<path d="M15.4357 2.79893e-05H4.43279C3.95115 2.79893e-05 3.47417 0.0953286 3.02919 0.280502C2.58421 0.465676 2.1799 0.737116 1.83933 1.07927C1.49875 1.42143 1.22857 1.82762 1.04425 2.27467C0.859939 2.72172 0.765079 3.20083 0.765079 3.68471V20.2588C0.757625 20.7474 0.846983 21.2327 1.02796 21.6862C1.20893 22.1398 1.47794 22.5527 1.81926 22.9009C2.16057 23.2491 2.56739 23.5255 3.01607 23.7142C3.46475 23.9029 3.94638 24.0001 4.43279 24H20.1173L17.5177 21.4024C17.177 21.058 16.772 20.7848 16.3259 20.5982C15.8797 20.4117 15.4013 20.3155 14.9181 20.3153H4.43279V3.7271H15.4357V12.6165H10.768L13.3677 15.2282C13.709 15.5706 14.1145 15.8417 14.5607 16.0259C15.0069 16.21 15.485 16.3036 15.9674 16.3012H19.1173V3.7271C19.1229 3.23848 19.0318 2.75361 18.8491 2.30073C18.6664 1.84786 18.3958 1.43598 18.0532 1.08914C17.7106 0.742294 17.3028 0.467395 16.8534 0.280416C16.404 0.0934366 15.922 -0.00187658 15.4357 2.79893e-05Z" fill="#EF5933"/>
</svg>
