<svg width="86" height="86" viewBox="0 0 86 86" fill="none" xmlns="http://www.w3.org/2000/svg">
<g clip-path="url(#clip0_468_475)">
<path d="M35.8788 51.9426H3.99021C3.46621 51.9426 2.94731 51.8397 2.4632 51.6398C1.97909 51.4399 1.53922 51.147 1.16869 50.7776C0.79817 50.4083 0.504266 49.9699 0.30374 49.4874C0.103213 49.0048 -7.62939e-06 48.4876 -7.62939e-06 47.9653V3.97721C-7.62939e-06 3.45492 0.103213 2.93773 0.30374 2.45519C0.504266 1.97265 0.79817 1.53422 1.16869 1.1649C1.53922 0.795579 1.97909 0.50262 2.4632 0.302746C2.94731 0.102873 3.46621 0 3.99021 0H24.2138L39.9103 16.0818V47.9653C39.9103 48.4911 39.8057 49.0117 39.6026 49.4969C39.3995 49.9822 39.1019 50.4224 38.727 50.7923C38.3521 51.1622 37.9073 51.4543 37.4184 51.6517C36.9295 51.8491 36.4062 51.948 35.8788 51.9426Z" fill="#DFDFDF"/>
<path d="M24.2138 0V12.3516C24.2138 12.8371 24.3098 13.3179 24.4962 13.7665C24.6826 14.215 24.9558 14.6226 25.3003 14.9659C25.6447 15.3093 26.0536 15.5816 26.5036 15.7674C26.9537 15.9532 27.436 16.0488 27.9231 16.0488H39.869L24.2138 0Z" fill="#C9C9C9"/>
<path d="M7.97381 42.1283C8.0768 42.1377 8.19383 42.147 8.32491 42.1564C8.46535 42.1564 8.6292 42.1564 8.81646 42.1564C9.9119 42.1564 10.7218 41.8802 11.2461 41.3278C11.7798 40.7754 12.0466 40.0123 12.0466 39.0386C12.0466 38.018 11.7938 37.2456 11.2882 36.7213C10.7826 36.197 9.98213 35.9348 8.88668 35.9348C8.73687 35.9348 8.58239 35.9395 8.42322 35.9489C8.26405 35.9489 8.11425 35.9582 7.97381 35.977V42.1283ZM14.3077 39.0386C14.3077 39.8812 14.1767 40.6162 13.9145 41.2435C13.6523 41.8708 13.2778 42.3905 12.791 42.8024C12.3135 43.2144 11.7283 43.5234 11.0354 43.7293C10.3426 43.9353 9.56548 44.0383 8.7041 44.0383C8.31087 44.0383 7.85209 44.0196 7.32777 43.9821C6.80346 43.9541 6.2885 43.8885 5.78291 43.7855V34.3057C6.2885 34.2121 6.81282 34.1512 7.35586 34.1231C7.90827 34.0857 8.38109 34.0669 8.77432 34.0669C9.60761 34.0669 10.3613 34.1606 11.0354 34.3478C11.7189 34.5351 12.3041 34.83 12.791 35.2326C13.2778 35.6352 13.6523 36.1502 13.9145 36.7775C14.1767 37.4048 14.3077 38.1585 14.3077 39.0386Z" fill="#838383"/>
<path d="M17.9775 39.0386C17.9775 39.5161 18.0337 39.9468 18.1461 40.3307C18.2678 40.7145 18.4363 41.0469 18.6517 41.3278C18.8764 41.5993 19.1479 41.81 19.4662 41.9598C19.7846 42.1096 20.1497 42.1845 20.5617 42.1845C20.9643 42.1845 21.3247 42.1096 21.6431 41.9598C21.9708 41.81 22.2423 41.5993 22.4576 41.3278C22.6823 41.0469 22.8509 40.7145 22.9632 40.3307C23.0849 39.9468 23.1458 39.5161 23.1458 39.0386C23.1458 38.5611 23.0849 38.1304 22.9632 37.7465C22.8509 37.3533 22.6823 37.0209 22.4576 36.7494C22.2423 36.4685 21.9708 36.2532 21.6431 36.1034C21.3247 35.9535 20.9643 35.8786 20.5617 35.8786C20.1497 35.8786 19.7846 35.9582 19.4662 36.1174C19.1479 36.2672 18.8764 36.4825 18.6517 36.7634C18.4363 37.0349 18.2678 37.3673 18.1461 37.7606C18.0337 38.1444 17.9775 38.5704 17.9775 39.0386ZM25.4069 39.0386C25.4069 39.8719 25.2805 40.6069 25.0277 41.2435C24.7843 41.8708 24.4472 42.3998 24.0165 42.8305C23.5859 43.2518 23.0709 43.5702 22.4717 43.7855C21.8818 44.0009 21.2452 44.1085 20.5617 44.1085C19.8969 44.1085 19.2696 44.0009 18.6798 43.7855C18.0899 43.5702 17.5749 43.2518 17.1349 42.8305C16.6948 42.3998 16.3484 41.8708 16.0956 41.2435C15.8428 40.6069 15.7164 39.8719 15.7164 39.0386C15.7164 38.2053 15.8475 37.475 16.1097 36.8477C16.3718 36.211 16.7229 35.6773 17.163 35.2467C17.6124 34.816 18.1274 34.493 18.7078 34.2776C19.2977 34.0623 19.9156 33.9546 20.5617 33.9546C21.2264 33.9546 21.8537 34.0623 22.4436 34.2776C23.0335 34.493 23.5484 34.816 23.9885 35.2467C24.4285 35.6773 24.7749 36.211 25.0277 36.8477C25.2805 37.475 25.4069 38.2053 25.4069 39.0386Z" fill="#838383"/>
<path d="M31.6712 44.1085C30.0889 44.1085 28.8811 43.6685 28.0478 42.7884C27.2239 41.9083 26.8119 40.6583 26.8119 39.0386C26.8119 38.2334 26.9383 37.5171 27.1911 36.8898C27.4439 36.2532 27.7903 35.7195 28.2304 35.2888C28.6704 34.8487 29.1947 34.5164 29.8033 34.2917C30.4119 34.0669 31.072 33.9546 31.7835 33.9546C32.1955 33.9546 32.57 33.9874 32.9071 34.0529C33.2441 34.1091 33.5391 34.1793 33.7919 34.2636C34.0446 34.3385 34.2553 34.418 34.4238 34.5023C34.5924 34.5866 34.7141 34.6521 34.789 34.6989L34.157 36.4685C33.8574 36.3093 33.5063 36.1736 33.1037 36.0612C32.7104 35.9489 32.261 35.8927 31.7554 35.8927C31.4184 35.8927 31.086 35.9489 30.7583 36.0612C30.44 36.1736 30.1544 36.3561 29.9016 36.6089C29.6582 36.8524 29.4616 37.1707 29.3118 37.5639C29.1619 37.9572 29.087 38.4347 29.087 38.9965C29.087 39.4459 29.1339 39.8672 29.2275 40.2604C29.3305 40.6443 29.4896 40.9767 29.705 41.2576C29.9297 41.5385 30.2199 41.7632 30.5757 41.9317C30.9315 42.0909 31.3622 42.1704 31.8678 42.1704C32.1861 42.1704 32.4717 42.1517 32.7245 42.1143C32.9773 42.0768 33.202 42.0347 33.3986 41.9879C33.5952 41.9317 33.7684 41.8708 33.9182 41.8053C34.0681 41.7398 34.2038 41.6789 34.3255 41.6227L34.9294 43.3782C34.6205 43.5655 34.1851 43.734 33.6233 43.8838C33.0616 44.0336 32.4108 44.1085 31.6712 44.1085Z" fill="#838383"/>
<path d="M82.0098 85.9917H50.0882C49.0299 85.9917 48.015 85.5727 47.2667 84.8268C46.5184 84.0809 46.098 83.0693 46.098 82.0145V38.0263C46.098 36.9715 46.5184 35.9599 47.2667 35.214C48.015 34.4682 49.0299 34.0491 50.0882 34.0491H70.3118L86.0082 50.1309V82.0309C86.0039 83.0843 85.5804 84.093 84.8308 84.8355C84.0812 85.5781 83.0667 85.9939 82.0098 85.9917Z" fill="#EF5933"/>
<path d="M70.3449 34.0491V46.4007C70.3449 47.382 70.7354 48.3233 71.4308 49.018C72.1262 49.7127 73.0697 50.104 74.0542 50.1062H86L70.3449 34.0491Z" fill="#D23A14"/>
<path d="M56.38 68.1245C57.8312 68.1245 58.9454 68.3819 59.7225 68.8969C60.4996 69.4025 60.8882 70.2358 60.8882 71.3967C60.8882 72.5671 60.4949 73.4144 59.7085 73.9387C58.922 74.4537 57.7985 74.7112 56.3379 74.7112H55.6497V77.9694H53.4588V68.3772C53.9363 68.2836 54.4419 68.2181 54.9756 68.1806C55.5093 68.1432 55.9774 68.1245 56.38 68.1245ZM56.5204 69.9923C56.3613 69.9923 56.2021 69.997 56.0429 70.0064C55.8931 70.0157 55.762 70.0251 55.6497 70.0345V72.8433H56.3379C57.0962 72.8433 57.6674 72.7403 58.0512 72.5343C58.4351 72.3283 58.6271 71.9445 58.6271 71.3827C58.6271 71.1112 58.5756 70.8865 58.4726 70.7086C58.3789 70.5307 58.2385 70.3902 58.0512 70.2873C57.8734 70.1749 57.6533 70.1 57.3912 70.0625C57.129 70.0157 56.8388 69.9923 56.5204 69.9923Z" fill="#FEF3F1"/>
<path d="M64.6879 76.1858C64.7909 76.1952 64.9079 76.2045 65.039 76.2139C65.1794 76.2139 65.3433 76.2139 65.5305 76.2139C66.626 76.2139 67.4359 75.9377 67.9602 75.3853C68.4939 74.8329 68.7607 74.0698 68.7607 73.0961C68.7607 72.0755 68.5079 71.3031 68.0023 70.7788C67.4967 70.2545 66.6962 69.9923 65.6008 69.9923C65.451 69.9923 65.2965 69.997 65.1373 70.0064C64.9781 70.0064 64.8283 70.0157 64.6879 70.0345V76.1858ZM71.0218 73.0961C71.0218 73.9387 70.8907 74.6737 70.6286 75.301C70.3664 75.9283 69.9919 76.448 69.5051 76.8599C69.0275 77.2719 68.4424 77.5809 67.7495 77.7869C67.0567 77.9928 66.2796 78.0958 65.4182 78.0958C65.025 78.0958 64.5662 78.0771 64.0419 78.0396C63.5175 78.0116 63.0026 77.946 62.497 77.843V68.3632C63.0026 68.2696 63.5269 68.2087 64.07 68.1806C64.6224 68.1432 65.0952 68.1245 65.4884 68.1245C66.3217 68.1245 67.0754 68.2181 67.7495 68.4053C68.433 68.5926 69.0182 68.8875 69.5051 69.2901C69.9919 69.6927 70.3664 70.2077 70.6286 70.835C70.8907 71.4623 71.0218 72.216 71.0218 73.0961Z" fill="#FEF3F1"/>
<path d="M72.8518 77.9694V68.2368H79.3684V70.0766H75.0427V72.113H78.8909V73.9528H75.0427V77.9694H72.8518Z" fill="#FEF3F1"/>
<path fill-rule="evenodd" clip-rule="evenodd" d="M19.9345 56.809C20.4868 56.809 20.9345 57.2567 20.9345 57.809L20.9345 64.5998C20.9335 65.5322 21.1171 66.4557 21.4747 67.3175C21.8323 68.1793 22.3571 68.9626 23.019 69.6223C23.681 70.2821 24.4671 70.8055 25.3326 71.1623C26.1981 71.5191 27.1258 71.7023 28.0626 71.7014L28.0636 71.7014L40.3477 71.7014C40.9 71.7014 41.3477 72.1491 41.3477 72.7014C41.3477 73.2537 40.9 73.7014 40.3477 73.7014L28.0646 73.7014C28.0643 73.7014 28.065 73.7014 28.0646 73.7014C26.8661 73.7025 25.678 73.468 24.5703 73.0113C23.4622 72.5545 22.4553 71.8843 21.6071 71.0389C20.7589 70.1934 20.0861 69.1894 19.6274 68.0841C19.1688 66.9789 18.9333 65.7944 18.9345 64.5982C18.9345 64.5981 18.9345 64.5984 18.9345 64.5982V57.809C18.9345 57.2567 19.3822 56.809 19.9345 56.809Z" fill="#C9C9C9"/>
<path fill-rule="evenodd" clip-rule="evenodd" d="M41.0568 72.0045C41.4462 72.3961 41.4445 73.0293 41.0529 73.4187L37.3601 77.0912C36.9685 77.4807 36.3354 77.479 35.9459 77.0874C35.5565 76.6958 35.5582 76.0626 35.9498 75.6731L39.6426 72.0006C40.0342 71.6112 40.6673 71.6129 41.0568 72.0045Z" fill="#C9C9C9"/>
<path fill-rule="evenodd" clip-rule="evenodd" d="M35.9467 68.323C36.3366 67.9318 36.9697 67.9308 37.3609 68.3207L41.0537 72.0014C41.4449 72.3913 41.4459 73.0245 41.056 73.4157C40.6661 73.8068 40.033 73.8079 39.6418 73.418L35.949 69.7372C35.5578 69.3473 35.5568 68.7141 35.9467 68.323Z" fill="#C9C9C9"/>
</g>
<defs>
<clipPath id="clip0_468_475">
<rect width="86" height="86" fill="white"/>
</clipPath>
</defs>
</svg>
