<svg width="86" height="86" viewBox="0 0 86 86" fill="none" xmlns="http://www.w3.org/2000/svg">
<g clip-path="url(#clip0_468_806)">
<path d="M21.7933 78.9596H2.42055C1.77858 78.9596 1.16289 78.7054 0.708946 78.2529C0.255003 77.8005 0 77.1868 0 76.5469V49.8263C0 49.1864 0.255003 48.5728 0.708946 48.1203C1.16289 47.6678 1.77858 47.4136 2.42055 47.4136H14.6968L24.2056 57.1796V76.5469C24.2056 77.1854 23.9516 77.7978 23.4995 78.25C23.0473 78.7022 22.4338 78.9574 21.7933 78.9596Z" fill="#DFDFDF"/>
<path d="M14.6968 47.4466V54.9646C14.6968 55.5608 14.9345 56.1326 15.3574 56.5542C15.7804 56.9757 16.354 57.2126 16.9522 57.2126H24.2056L14.6968 47.4466Z" fill="#C9C9C9"/>
<path d="M5.29323 74.3244C5.13948 74.3244 4.9772 74.313 4.80637 74.2902C4.63554 74.2731 4.47041 74.2475 4.31097 74.2134C4.15153 74.1792 4.00633 74.1422 3.87536 74.1023C3.74439 74.0625 3.6419 74.0254 3.56787 73.9913L3.81557 72.9322C3.96362 72.9948 4.15153 73.0631 4.3793 73.1371C4.61277 73.2055 4.90032 73.2396 5.24198 73.2396C5.63488 73.2396 5.92244 73.1656 6.10466 73.0176C6.28687 72.8695 6.37798 72.6702 6.37798 72.4197C6.37798 72.2659 6.34382 72.1378 6.27549 72.0353C6.21285 71.9271 6.12459 71.8417 6.0107 71.7791C5.89682 71.7107 5.76016 71.6652 5.60072 71.6424C5.44697 71.6139 5.28184 71.5997 5.10532 71.5997H4.60992V70.5747H5.17365C5.29892 70.5747 5.4185 70.5633 5.53239 70.5406C5.65197 70.5178 5.75731 70.4808 5.84842 70.4295C5.93953 70.3726 6.0107 70.2986 6.06195 70.2075C6.11889 70.1107 6.14736 69.9911 6.14736 69.8487C6.14736 69.7405 6.12459 69.6466 6.07903 69.5669C6.03348 69.4871 5.97369 69.4216 5.89967 69.3704C5.83133 69.3192 5.74877 69.2821 5.65197 69.2594C5.56086 69.2309 5.4669 69.2167 5.3701 69.2167C5.12525 69.2167 4.89748 69.2537 4.68679 69.3277C4.4818 69.4017 4.29389 69.4928 4.12306 69.601L3.67037 68.67C3.76148 68.6131 3.86682 68.5533 3.9864 68.4906C4.11167 68.428 4.24833 68.3711 4.39638 68.3198C4.54443 68.2686 4.70103 68.2259 4.86616 68.1917C5.03699 68.1575 5.21636 68.1404 5.40427 68.1404C5.75161 68.1404 6.05056 68.1831 6.30111 68.2686C6.55735 68.3483 6.76804 68.465 6.93317 68.6188C7.0983 68.7668 7.22073 68.9433 7.30045 69.1483C7.38017 69.3476 7.42003 69.5669 7.42003 69.806C7.42003 70.0395 7.35455 70.2672 7.22358 70.4893C7.09261 70.7057 6.91609 70.8708 6.69401 70.9847C7.0015 71.11 7.23781 71.2979 7.40295 71.5484C7.57377 71.7933 7.65919 72.0894 7.65919 72.4368C7.65919 72.7101 7.61363 72.9635 7.52253 73.1969C7.43142 73.4247 7.28906 73.624 7.09546 73.7948C6.90185 73.96 6.65415 74.0909 6.35236 74.1877C6.05626 74.2788 5.70321 74.3244 5.29323 74.3244Z" fill="#838383"/>
<path d="M12.7615 71.2239C12.7615 72.2204 12.5707 72.9862 12.1892 73.5215C11.8134 74.0511 11.2923 74.3159 10.6261 74.3159C9.95989 74.3159 9.43602 74.0511 9.0545 73.5215C8.67868 72.9862 8.49077 72.2204 8.49077 71.2239C8.49077 70.7285 8.53917 70.29 8.63597 69.9085C8.73847 69.527 8.88367 69.2053 9.07158 68.9433C9.25949 68.6814 9.48442 68.4821 9.74635 68.3454C10.0083 68.2088 10.3015 68.1404 10.6261 68.1404C11.2923 68.1404 11.8134 68.4081 12.1892 68.9433C12.5707 69.4729 12.7615 70.2331 12.7615 71.2239ZM11.4632 71.2239C11.4632 70.9278 11.4489 70.6601 11.4205 70.421C11.392 70.1761 11.3464 69.9654 11.2838 69.7889C11.2212 69.6124 11.1357 69.4757 11.0276 69.3789C10.9194 69.2821 10.7856 69.2337 10.6261 69.2337C10.4667 69.2337 10.3329 69.2821 10.2247 69.3789C10.1222 69.4757 10.0368 69.6124 9.96843 69.7889C9.90579 69.9654 9.86024 70.1761 9.83177 70.421C9.80329 70.6601 9.78906 70.9278 9.78906 71.2239C9.78906 71.52 9.80329 71.7905 9.83177 72.0353C9.86024 72.2802 9.90579 72.4908 9.96843 72.6674C10.0368 72.8439 10.1222 72.9806 10.2247 73.0774C10.3329 73.1742 10.4667 73.2226 10.6261 73.2226C10.7856 73.2226 10.9194 73.1742 11.0276 73.0774C11.1357 72.9806 11.2212 72.8439 11.2838 72.6674C11.3464 72.4908 11.392 72.2802 11.4205 72.0353C11.4489 71.7905 11.4632 71.52 11.4632 71.2239Z" fill="#838383"/>
<path d="M16.3775 69.7975C16.3775 70.3327 16.2409 70.7427 15.9675 71.0274C15.6942 71.3121 15.3269 71.4545 14.8657 71.4545C14.4045 71.4545 14.0372 71.3121 13.7639 71.0274C13.4905 70.7427 13.3539 70.3327 13.3539 69.7975C13.3539 69.2622 13.4905 68.8522 13.7639 68.5675C14.0372 68.2828 14.4045 68.1404 14.8657 68.1404C15.3269 68.1404 15.6942 68.2828 15.9675 68.5675C16.2409 68.8522 16.3775 69.2622 16.3775 69.7975ZM15.4123 69.7975C15.4123 69.5071 15.3611 69.2964 15.2586 69.1654C15.1561 69.0344 15.0251 68.969 14.8657 68.969C14.7006 68.969 14.5668 69.0344 14.4643 69.1654C14.3675 69.2964 14.3191 69.5071 14.3191 69.7975C14.3191 70.0879 14.3675 70.3014 14.4643 70.4381C14.5668 70.569 14.7006 70.6345 14.8657 70.6345C15.0251 70.6345 15.1561 70.569 15.2586 70.4381C15.3611 70.3014 15.4123 70.0879 15.4123 69.7975ZM18.0431 68.2771H19.2303L15.8907 74.1963H14.7034L18.0431 68.2771ZM20.597 72.6759C20.597 73.2112 20.4603 73.6212 20.187 73.9059C19.9137 74.1906 19.5464 74.3329 19.0851 74.3329C18.6239 74.3329 18.2566 74.1906 17.9833 73.9059C17.71 73.6212 17.5733 73.2112 17.5733 72.6759C17.5733 72.1407 17.71 71.7307 17.9833 71.446C18.2566 71.1612 18.6239 71.0189 19.0851 71.0189C19.5464 71.0189 19.9137 71.1612 20.187 71.446C20.4603 71.7307 20.597 72.1407 20.597 72.6759ZM19.6318 72.6759C19.6318 72.3855 19.5805 72.1748 19.478 72.0438C19.3755 71.9129 19.2446 71.8474 19.0851 71.8474C18.92 71.8474 18.7862 71.9129 18.6837 72.0438C18.5869 72.1748 18.5385 72.3855 18.5385 72.6759C18.5385 72.9663 18.5869 73.1799 18.6837 73.3165C18.7862 73.4475 18.92 73.513 19.0851 73.513C19.2446 73.513 19.3755 73.4475 19.478 73.3165C19.5805 73.1799 19.6318 72.9663 19.6318 72.6759Z" fill="#838383"/>
<path d="M21.7933 31.546H2.42055C1.77858 31.546 1.16289 31.2918 0.708946 30.8393C0.255003 30.3868 0 29.7732 0 29.1333V2.41267C0 2.09583 0.0626009 1.7821 0.184245 1.48938C0.30589 1.19666 0.484176 0.930688 0.708946 0.70665C0.933716 0.482613 1.20056 0.304894 1.49423 0.183645C1.78791 0.0623971 2.10268 0 2.42055 0H14.6968L24.2056 9.76599V29.1333C24.2056 29.7717 23.9516 30.3842 23.4995 30.8364C23.0473 31.2886 22.4338 31.5438 21.7933 31.546Z" fill="#DFDFDF"/>
<path d="M14.6968 0V7.51799C14.6968 8.1142 14.9345 8.68598 15.3574 9.10756C15.7804 9.52914 16.354 9.76599 16.9522 9.76599H24.2056L14.6968 0Z" fill="#C9C9C9"/>
<path d="M4.55867 26.7826C4.59283 26.367 4.66401 25.9342 4.7722 25.4844C4.88039 25.0345 5.01136 24.5932 5.16511 24.1604C5.32455 23.7277 5.50107 23.3205 5.69467 22.939C5.88828 22.5518 6.08473 22.2187 6.28403 21.9397H3.71307V20.8549H7.85564V21.7774C7.67342 21.9767 7.47128 22.2529 7.2492 22.6059C7.03282 22.959 6.82498 23.3604 6.62568 23.8102C6.43208 24.2544 6.26125 24.7327 6.1132 25.2452C5.97084 25.7577 5.88258 26.2702 5.84842 26.7826H4.55867Z" fill="#838383"/>
<path d="M12.7615 23.8102C12.7615 24.8067 12.5707 25.5726 12.1892 26.1079C11.8134 26.6374 11.2923 26.9022 10.6261 26.9022C9.95989 26.9022 9.43601 26.6374 9.0545 26.1079C8.67868 25.5726 8.49077 24.8067 8.49077 23.8102C8.49077 23.3148 8.53917 22.8764 8.63597 22.4949C8.73847 22.1134 8.88367 21.7916 9.07158 21.5297C9.25949 21.2678 9.48442 21.0685 9.74635 20.9318C10.0083 20.7951 10.3015 20.7268 10.6261 20.7268C11.2923 20.7268 11.8134 20.9944 12.1892 21.5297C12.5707 22.0593 12.7615 22.8194 12.7615 23.8102ZM11.4632 23.8102C11.4632 23.5141 11.4489 23.2465 11.4205 23.0074C11.392 22.7625 11.3464 22.5518 11.2838 22.3753C11.2212 22.1988 11.1357 22.0621 11.0276 21.9653C10.9194 21.8685 10.7856 21.8201 10.6261 21.8201C10.4667 21.8201 10.3329 21.8685 10.2247 21.9653C10.1222 22.0621 10.0368 22.1988 9.96843 22.3753C9.90579 22.5518 9.86024 22.7625 9.83176 23.0074C9.80329 23.2465 9.78906 23.5141 9.78906 23.8102C9.78906 24.1063 9.80329 24.3768 9.83176 24.6217C9.86024 24.8665 9.90579 25.0772 9.96843 25.2537C10.0368 25.4303 10.1222 25.5669 10.2247 25.6637C10.3329 25.7605 10.4667 25.8089 10.6261 25.8089C10.7856 25.8089 10.9194 25.7605 11.0276 25.6637C11.1357 25.5669 11.2212 25.4303 11.2838 25.2537C11.3464 25.0772 11.392 24.8665 11.4205 24.6217C11.4489 24.3768 11.4632 24.1063 11.4632 23.8102Z" fill="#838383"/>
<path d="M16.3775 22.3838C16.3775 22.9191 16.2409 23.3291 15.9675 23.6138C15.6942 23.8985 15.3269 24.0409 14.8657 24.0409C14.4045 24.0409 14.0372 23.8985 13.7639 23.6138C13.4905 23.3291 13.3539 22.9191 13.3539 22.3838C13.3539 21.8486 13.4905 21.4386 13.7639 21.1539C14.0372 20.8692 14.4045 20.7268 14.8657 20.7268C15.3269 20.7268 15.6942 20.8692 15.9675 21.1539C16.2409 21.4386 16.3775 21.8486 16.3775 22.3838ZM15.4123 22.3838C15.4123 22.0934 15.3611 21.8827 15.2586 21.7518C15.1561 21.6208 15.0251 21.5553 14.8657 21.5553C14.7006 21.5553 14.5668 21.6208 14.4643 21.7518C14.3675 21.8827 14.3191 22.0934 14.3191 22.3838C14.3191 22.6742 14.3675 22.8878 14.4643 23.0244C14.5668 23.1554 14.7006 23.2209 14.8657 23.2209C15.0251 23.2209 15.1561 23.1554 15.2586 23.0244C15.3611 22.8878 15.4123 22.6742 15.4123 22.3838ZM18.0431 20.8635H19.2303L15.8907 26.7826H14.7034L18.0431 20.8635ZM20.597 25.2623C20.597 25.7975 20.4603 26.2075 20.187 26.4922C19.9137 26.7769 19.5464 26.9193 19.0851 26.9193C18.6239 26.9193 18.2566 26.7769 17.9833 26.4922C17.71 26.2075 17.5733 25.7975 17.5733 25.2623C17.5733 24.727 17.71 24.317 17.9833 24.0323C18.2566 23.7476 18.6239 23.6052 19.0851 23.6052C19.5464 23.6052 19.9137 23.7476 20.187 24.0323C20.4603 24.317 20.597 24.727 20.597 25.2623ZM19.6318 25.2623C19.6318 24.9719 19.5805 24.7612 19.478 24.6302C19.3755 24.4992 19.2446 24.4338 19.0851 24.4338C18.92 24.4338 18.7862 24.4992 18.6837 24.6302C18.5869 24.7612 18.5385 24.9719 18.5385 25.2623C18.5385 25.5527 18.5869 25.7662 18.6837 25.9029C18.7862 26.0338 18.92 26.0993 19.0851 26.0993C19.2446 26.0993 19.3755 26.0338 19.478 25.9029C19.5805 25.7662 19.6318 25.5527 19.6318 25.2623Z" fill="#838383"/>
<path d="M82.0097 85.9917H50.1212C49.0629 85.9917 48.048 85.5727 47.2997 84.8268C46.5514 84.081 46.131 83.0694 46.131 82.0145V38.0264C46.131 36.9716 46.5514 35.96 47.2997 35.2141C48.048 34.4682 49.0629 34.0492 50.1212 34.0492H70.3448L86 50.131V82.031C85.9956 83.083 85.5732 84.0904 84.8254 84.8327C84.0776 85.575 83.0652 85.9918 82.0097 85.9917Z" fill="#EF5933"/>
<path d="M70.3448 34.0492V46.4008C70.3448 47.3821 70.7354 48.3234 71.4308 49.018C72.1262 49.7127 73.0696 50.1041 74.0542 50.1063H86L70.3448 34.0492Z" fill="#D23A14"/>
<path d="M50.6929 71.3394C50.9329 71.2401 51.1812 71.1283 51.4378 71.0042C51.7026 70.8718 51.9592 70.7311 52.2075 70.5821C52.4558 70.4248 52.6917 70.2634 52.9151 70.0979C53.1469 69.9241 53.3538 69.742 53.5359 69.5517H54.827V78.1551H52.9772V71.9601C52.7289 72.1257 52.4516 72.2788 52.1454 72.4195C51.8392 72.5519 51.5412 72.6678 51.2515 72.7671L50.6929 71.3394Z" fill="#FEF3F1"/>
<path d="M63.5094 73.8348C63.5094 75.2832 63.2321 76.3963 62.6776 77.1743C62.1313 77.9441 61.374 78.3289 60.4057 78.3289C59.4373 78.3289 58.6759 77.9441 58.1214 77.1743C57.5751 76.3963 57.302 75.2832 57.302 73.8348C57.302 73.1147 57.3723 72.4774 57.513 71.9229C57.662 71.3684 57.8731 70.9007 58.1462 70.52C58.4193 70.1393 58.7463 69.8496 59.127 69.651C59.5077 69.4523 59.9339 69.353 60.4057 69.353C61.374 69.353 62.1313 69.742 62.6776 70.52C63.2321 71.2897 63.5094 72.3946 63.5094 73.8348ZM61.6223 73.8348C61.6223 73.4044 61.6017 73.0154 61.5603 72.6678C61.5189 72.3119 61.4527 72.0057 61.3616 71.7491C61.2706 71.4925 61.1464 71.2939 60.9892 71.1532C60.8319 71.0125 60.6374 70.9421 60.4057 70.9421C60.174 70.9421 59.9795 71.0125 59.8222 71.1532C59.6732 71.2939 59.5491 71.4925 59.4498 71.7491C59.3587 72.0057 59.2925 72.3119 59.2511 72.6678C59.2097 73.0154 59.189 73.4044 59.189 73.8348C59.189 74.2651 59.2097 74.6583 59.2511 75.0142C59.2925 75.3701 59.3587 75.6763 59.4498 75.9329C59.5491 76.1894 59.6732 76.3881 59.8222 76.5288C59.9795 76.6695 60.174 76.7398 60.4057 76.7398C60.6374 76.7398 60.8319 76.6695 60.9892 76.5288C61.1464 76.3881 61.2706 76.1894 61.3616 75.9329C61.4527 75.6763 61.5189 75.3701 61.5603 75.0142C61.6017 74.6583 61.6223 74.2651 61.6223 73.8348Z" fill="#FEF3F1"/>
<path d="M70.5654 73.8348C70.5654 75.2832 70.2882 76.3963 69.7337 77.1743C69.1874 77.9441 68.4301 78.3289 67.4618 78.3289C66.4934 78.3289 65.732 77.9441 65.1774 77.1743C64.6312 76.3963 64.3581 75.2832 64.3581 73.8348C64.3581 73.1147 64.4284 72.4774 64.5691 71.9229C64.7181 71.3684 64.9291 70.9007 65.2023 70.52C65.4754 70.1393 65.8023 69.8496 66.183 69.651C66.5637 69.4523 66.99 69.353 67.4618 69.353C68.4301 69.353 69.1874 69.742 69.7337 70.52C70.2882 71.2897 70.5654 72.3946 70.5654 73.8348ZM68.6784 73.8348C68.6784 73.4044 68.6577 73.0154 68.6163 72.6678C68.5749 72.3119 68.5087 72.0057 68.4177 71.7491C68.3266 71.4925 68.2025 71.2939 68.0452 71.1532C67.888 71.0125 67.6935 70.9421 67.4618 70.9421C67.23 70.9421 67.0355 71.0125 66.8783 71.1532C66.7293 71.2939 66.6051 71.4925 66.5058 71.7491C66.4148 72.0057 66.3486 72.3119 66.3072 72.6678C66.2658 73.0154 66.2451 73.4044 66.2451 73.8348C66.2451 74.2651 66.2658 74.6583 66.3072 75.0142C66.3486 75.3701 66.4148 75.6763 66.5058 75.9329C66.6051 76.1894 66.7293 76.3881 66.8783 76.5288C67.0355 76.6695 67.23 76.7398 67.4618 76.7398C67.6935 76.7398 67.888 76.6695 68.0452 76.5288C68.2025 76.3881 68.3266 76.1894 68.4177 75.9329C68.5087 75.6763 68.5749 75.3701 68.6163 75.0142C68.6577 74.6583 68.6784 74.2651 68.6784 73.8348Z" fill="#FEF3F1"/>
<path d="M75.8214 71.7615C75.8214 72.5395 75.6227 73.1354 75.2255 73.5492C74.8282 73.9631 74.2943 74.17 73.6239 74.17C72.9535 74.17 72.4197 73.9631 72.0224 73.5492C71.6252 73.1354 71.4265 72.5395 71.4265 71.7615C71.4265 70.9835 71.6252 70.3876 72.0224 69.9738C72.4197 69.5599 72.9535 69.353 73.6239 69.353C74.2943 69.353 74.8282 69.5599 75.2255 69.9738C75.6227 70.3876 75.8214 70.9835 75.8214 71.7615ZM74.4185 71.7615C74.4185 71.3394 74.344 71.0332 74.195 70.8428C74.046 70.6524 73.8557 70.5573 73.6239 70.5573C73.3839 70.5573 73.1894 70.6524 73.0404 70.8428C72.8997 71.0332 72.8294 71.3394 72.8294 71.7615C72.8294 72.1836 72.8997 72.494 73.0404 72.6926C73.1894 72.883 73.3839 72.9781 73.6239 72.9781C73.8557 72.9781 74.046 72.883 74.195 72.6926C74.344 72.494 74.4185 72.1836 74.4185 71.7615ZM78.2422 69.5517H79.9679L75.1137 78.1551H73.3881L78.2422 69.5517ZM81.9543 75.9453C81.9543 76.7233 81.7556 77.3192 81.3584 77.733C80.9611 78.1468 80.4272 78.3537 79.7568 78.3537C79.0864 78.3537 78.5526 78.1468 78.1553 77.733C77.7581 77.3192 77.5594 76.7233 77.5594 75.9453C77.5594 75.1673 77.7581 74.5714 78.1553 74.1575C78.5526 73.7437 79.0864 73.5368 79.7568 73.5368C80.4272 73.5368 80.9611 73.7437 81.3584 74.1575C81.7556 74.5714 81.9543 75.1673 81.9543 75.9453ZM80.5514 75.9453C80.5514 75.5232 80.4769 75.2169 80.3279 75.0266C80.179 74.8362 79.9886 74.741 79.7568 74.741C79.5168 74.741 79.3223 74.8362 79.1734 75.0266C79.0327 75.2169 78.9623 75.5232 78.9623 75.9453C78.9623 76.3674 79.0327 76.6778 79.1734 76.8764C79.3223 77.0667 79.5168 77.1619 79.7568 77.1619C79.9886 77.1619 80.179 77.0667 80.3279 76.8764C80.4769 76.6778 80.5514 76.3674 80.5514 75.9453Z" fill="#FEF3F1"/>
<path fill-rule="evenodd" clip-rule="evenodd" d="M36.5317 12.875C37.084 12.875 37.5317 13.3227 37.5317 13.875V62.3591C37.5317 64.1541 36.8163 65.8749 35.5439 67.1432C34.2716 68.4113 32.5467 69.1231 30.7488 69.1231H29.2866C28.7343 69.1231 28.2866 68.6754 28.2866 68.1231C28.2866 67.5709 28.7343 67.1231 29.2866 67.1231H30.7488C32.0184 67.1231 33.2353 66.6204 34.132 65.7266C35.0286 64.833 35.5317 63.6215 35.5317 62.3591V13.875C35.5317 13.3227 35.9795 12.875 36.5317 12.875Z" fill="#C9C9C9"/>
<path fill-rule="evenodd" clip-rule="evenodd" d="M28.3196 13.875C28.3196 13.3227 28.7674 12.875 29.3196 12.875H52.4674C54.9554 12.875 57.3423 13.8601 59.1026 15.6147C60.863 17.3694 61.8526 19.75 61.8526 22.2329V27.2723C61.8526 27.8246 61.4049 28.2723 60.8526 28.2723C60.3003 28.2723 59.8526 27.8246 59.8526 27.2723V22.2329C59.8526 20.2825 59.0753 18.4113 57.6907 17.0312C56.3059 15.651 54.4271 14.875 52.4674 14.875H29.3196C28.7674 14.875 28.3196 14.4273 28.3196 13.875Z" fill="#C9C9C9"/>
<path fill-rule="evenodd" clip-rule="evenodd" d="M56.4516 23.6432C56.8415 23.252 57.4746 23.251 57.8658 23.6409L61.5586 27.3216C61.9498 27.7115 61.9508 28.3447 61.5609 28.7358C61.171 29.127 60.5379 29.128 60.1467 28.7382L56.4539 25.0574C56.0627 24.6675 56.0617 24.0343 56.4516 23.6432Z" fill="#C9C9C9"/>
<path fill-rule="evenodd" clip-rule="evenodd" d="M65.2537 23.6432C65.6436 24.0343 65.6426 24.6675 65.2514 25.0574L61.5586 28.7382C61.1675 29.128 60.5343 29.127 60.1444 28.7358C59.7545 28.3447 59.7555 27.7115 60.1467 27.3216L63.8395 23.6409C64.2307 23.251 64.8638 23.252 65.2537 23.6432Z" fill="#C9C9C9"/>
<path d="M37.8123 11.7752H35.2595C34.8033 11.7752 34.4334 12.1438 34.4334 12.5986V15.143C34.4334 15.5978 34.8033 15.9665 35.2595 15.9665H37.8123C38.2685 15.9665 38.6384 15.5978 38.6384 15.143V12.5986C38.6384 12.1438 38.2685 11.7752 37.8123 11.7752Z" fill="#C9C9C9"/>
</g>
<defs>
<clipPath id="clip0_468_806">
<rect width="86" height="86" fill="white"/>
</clipPath>
</defs>
</svg>
