<svg width="86" height="86" viewBox="0 0 86 86" fill="none" xmlns="http://www.w3.org/2000/svg">
<g clip-path="url(#clip0_473_823)">
<path opacity="0.4" d="M69.3123 85.9917H16.6961C14.9432 85.9917 13.2622 85.2954 12.0228 84.056C10.7833 82.8166 10.087 81.1355 10.087 79.3827V6.58425C10.087 4.83143 10.7833 3.15039 12.0228 1.91095C13.2622 0.671521 14.9432 -0.0247803 16.6961 -0.0247803H50.0634L75.8965 26.5931V79.391C75.8943 81.1381 75.2004 82.8132 73.9666 84.0502C72.7327 85.2871 71.0594 85.9852 69.3123 85.9917Z" fill="#DFDFDF"/>
<path opacity="0.3" d="M50.0634 0V20.4963C50.0634 22.1198 50.7083 23.6769 51.8564 24.8249C53.0044 25.9729 54.5615 26.6179 56.1851 26.6179H75.8965L50.0634 0Z" fill="#C9C9C9"/>
<path d="M37.688 77.5405H18.3236C17.6816 77.5405 17.0659 77.2855 16.612 76.8315C16.158 76.3776 15.903 75.7619 15.903 75.1199V48.312C15.903 47.6701 16.158 47.0544 16.612 46.6005C17.0659 46.1465 17.6816 45.8915 18.3236 45.8915H30.6411L40.1416 55.6894V75.1117C40.1427 75.433 40.0799 75.7514 39.9566 76.0482C39.8334 76.345 39.6523 76.6143 39.4239 76.8404C39.1955 77.0665 38.9244 77.2448 38.6264 77.365C38.3283 77.4852 38.0094 77.5449 37.688 77.5405Z" fill="#EF5933"/>
<path d="M30.6411 45.8915V53.434C30.6411 54.0308 30.8776 54.6032 31.2988 55.0259C31.72 55.4486 32.2914 55.6872 32.8882 55.6894H40.1416L30.6411 45.8915Z" fill="#D23A14"/>
<path d="M22.3098 70.9962C22.3098 70.8314 22.2728 70.6865 22.1989 70.5614C22.1251 70.4307 21.9972 70.3227 21.8153 70.2375C21.6334 70.1522 21.389 70.0868 21.0821 70.0414C20.7752 69.9959 20.3887 69.9732 19.9226 69.9732C19.9851 69.4446 20.0363 68.9075 20.0761 68.3618C20.1158 67.8162 20.1471 67.3046 20.1698 66.8272H23.367V67.8929H21.2355C21.2242 68.0975 21.21 68.2965 21.1929 68.4897C21.1815 68.6773 21.1673 68.8421 21.1503 68.9842C21.9801 69.041 22.5911 69.2371 22.9833 69.5725C23.3812 69.9021 23.5801 70.3625 23.5801 70.9536C23.5801 71.2264 23.5318 71.4794 23.4352 71.7124C23.3385 71.9454 23.1936 72.1472 23.0004 72.3177C22.8071 72.4882 22.5627 72.6218 22.2671 72.7184C21.9773 72.8151 21.6362 72.8634 21.2441 72.8634C21.0906 72.8634 20.9286 72.852 20.7581 72.8293C20.5933 72.8122 20.4313 72.7866 20.2721 72.7525C20.1187 72.7241 19.9794 72.6929 19.8544 72.6588C19.7293 72.6246 19.6327 72.5905 19.5645 72.5564L19.7947 71.5078C19.9368 71.5703 20.1244 71.6328 20.3574 71.6954C20.5904 71.7522 20.8689 71.7806 21.1929 71.7806C21.5851 71.7806 21.8693 71.7039 22.0455 71.5504C22.2217 71.3913 22.3098 71.2065 22.3098 70.9962Z" fill="#FEF3F1"/>
<path d="M28.6389 69.7686C28.6389 70.7632 28.4485 71.5277 28.0676 72.062C27.6925 72.5905 27.1725 72.8548 26.5075 72.8548C25.8425 72.8548 25.3195 72.5905 24.9387 72.062C24.5636 71.5277 24.376 70.7632 24.376 69.7686C24.376 69.2741 24.4244 68.8364 24.521 68.4556C24.6233 68.0748 24.7682 67.7537 24.9558 67.4922C25.1434 67.2308 25.3679 67.0318 25.6293 66.8954C25.8908 66.759 26.1835 66.6908 26.5075 66.6908C27.1725 66.6908 27.6925 66.9579 28.0676 67.4922C28.4485 68.0208 28.6389 68.7796 28.6389 69.7686ZM27.343 69.7686C27.343 69.473 27.3288 69.2059 27.3003 68.9671C27.2719 68.7227 27.2265 68.5124 27.1639 68.3362C27.1014 68.16 27.0162 68.0236 26.9082 67.927C26.8002 67.8304 26.6666 67.7821 26.5075 67.7821C26.3483 67.7821 26.2147 67.8304 26.1068 67.927C26.0044 68.0236 25.9192 68.16 25.851 68.3362C25.7885 68.5124 25.743 68.7227 25.7146 68.9671C25.6862 69.2059 25.6719 69.473 25.6719 69.7686C25.6719 70.0641 25.6862 70.3341 25.7146 70.5785C25.743 70.8229 25.7885 71.0332 25.851 71.2094C25.9192 71.3856 26.0044 71.522 26.1068 71.6186C26.2147 71.7152 26.3483 71.7636 26.5075 71.7636C26.6666 71.7636 26.8002 71.7152 26.9082 71.6186C27.0162 71.522 27.1014 71.3856 27.1639 71.2094C27.2265 71.0332 27.2719 70.8229 27.3003 70.5785C27.3288 70.3341 27.343 70.0641 27.343 69.7686Z" fill="#FEF3F1"/>
<path d="M32.2483 68.3448C32.2483 68.879 32.1119 69.2883 31.8391 69.5725C31.5662 69.8567 31.1996 69.9987 30.7392 69.9987C30.2789 69.9987 29.9123 69.8567 29.6394 69.5725C29.3666 69.2883 29.2302 68.879 29.2302 68.3448C29.2302 67.8105 29.3666 67.4013 29.6394 67.1171C29.9123 66.8329 30.2789 66.6908 30.7392 66.6908C31.1996 66.6908 31.5662 66.8329 31.8391 67.1171C32.1119 67.4013 32.2483 67.8105 32.2483 68.3448ZM31.2849 68.3448C31.2849 68.0549 31.2337 67.8446 31.1314 67.7139C31.0291 67.5831 30.8984 67.5178 30.7392 67.5178C30.5744 67.5178 30.4408 67.5831 30.3385 67.7139C30.2419 67.8446 30.1936 68.0549 30.1936 68.3448C30.1936 68.6346 30.2419 68.8478 30.3385 68.9842C30.4408 69.1149 30.5744 69.1803 30.7392 69.1803C30.8984 69.1803 31.0291 69.1149 31.1314 68.9842C31.2337 68.8478 31.2849 68.6346 31.2849 68.3448ZM33.9108 66.8272H35.0958L31.7623 72.7355H30.5773L33.9108 66.8272ZM36.46 71.2179C36.46 71.7522 36.3235 72.1614 36.0507 72.4456C35.7779 72.7298 35.4113 72.8719 34.9509 72.8719C34.4905 72.8719 34.1239 72.7298 33.8511 72.4456C33.5783 72.1614 33.4419 71.7522 33.4419 71.2179C33.4419 70.6836 33.5783 70.2744 33.8511 69.9902C34.1239 69.706 34.4905 69.5639 34.9509 69.5639C35.4113 69.5639 35.7779 69.706 36.0507 69.9902C36.3235 70.2744 36.46 70.6836 36.46 71.2179ZM35.4966 71.2179C35.4966 70.928 35.4454 70.7177 35.3431 70.587C35.2408 70.4563 35.1101 70.3909 34.9509 70.3909C34.7861 70.3909 34.6525 70.4563 34.5502 70.587C34.4536 70.7177 34.4053 70.928 34.4053 71.2179C34.4053 71.5078 34.4536 71.7209 34.5502 71.8573C34.6525 71.9881 34.7861 72.0534 34.9509 72.0534C35.1101 72.0534 35.2408 71.9881 35.3431 71.8573C35.4454 71.7209 35.4966 71.5078 35.4966 71.2179Z" fill="#FEF3F1"/>
<path d="M37.688 40.1085H18.3236C17.6808 40.1064 17.0652 39.8495 16.6114 39.3942C16.1577 38.939 15.903 38.3225 15.903 37.6797V10.8801C15.903 10.2374 16.1577 9.62085 16.6114 9.1656C17.0652 8.71034 17.6808 8.45348 18.3236 8.45129H30.6411L40.1416 18.2492V37.688C40.1405 38.0083 40.0761 38.3253 39.952 38.6207C39.8279 38.916 39.6466 39.1839 39.4185 39.4089C39.1905 39.6339 38.9202 39.8115 38.6232 39.9316C38.3262 40.0517 38.0084 40.1118 37.688 40.1085Z" fill="#DFDFDF"/>
<path d="M30.6411 8.45129V15.9939C30.64 16.2896 30.6974 16.5827 30.8098 16.8563C30.9222 17.1299 31.0876 17.3786 31.2964 17.5881C31.5051 17.7976 31.7532 17.9639 32.0263 18.0773C32.2995 18.1908 32.5924 18.2492 32.8882 18.2492H40.1416L30.6411 8.45129Z" fill="#C9C9C9"/>
<path d="M21.1844 35.4232C21.0309 35.4232 20.869 35.4118 20.6984 35.3891C20.5279 35.372 20.3631 35.3464 20.204 35.3123C20.0448 35.2782 19.8999 35.2413 19.7691 35.2015C19.6384 35.1617 19.5361 35.1248 19.4622 35.0907L19.7095 34.0335C19.8572 34.096 20.0448 34.1642 20.2722 34.2381C20.5052 34.3063 20.7922 34.3404 21.1332 34.3404C21.5254 34.3404 21.8125 34.2665 21.9943 34.1188C22.1762 33.971 22.2672 33.772 22.2672 33.522C22.2672 33.3685 22.2331 33.2406 22.1648 33.1383C22.1023 33.0303 22.0142 32.9451 21.9006 32.8825C21.7869 32.8143 21.6505 32.7689 21.4913 32.7461C21.3379 32.7177 21.173 32.7035 20.9968 32.7035H20.5023V31.6804H21.065C21.1901 31.6804 21.3094 31.6691 21.4231 31.6463C21.5425 31.6236 21.6476 31.5866 21.7386 31.5355C21.8295 31.4786 21.9006 31.4048 21.9517 31.3138C22.0085 31.2172 22.037 31.0978 22.037 30.9557C22.037 30.8477 22.0142 30.754 21.9688 30.6744C21.9233 30.5948 21.8636 30.5295 21.7897 30.4783C21.7215 30.4272 21.6391 30.3902 21.5425 30.3675C21.4515 30.3391 21.3578 30.3248 21.2611 30.3248C21.0167 30.3248 20.7894 30.3618 20.5791 30.4357C20.3745 30.5096 20.1869 30.6005 20.0164 30.7085L19.5645 29.7792C19.6555 29.7224 19.7606 29.6627 19.88 29.6002C20.005 29.5376 20.1414 29.4808 20.2892 29.4296C20.437 29.3785 20.5933 29.3359 20.7581 29.3018C20.9286 29.2677 21.1077 29.2506 21.2952 29.2506C21.6419 29.2506 21.9403 29.2932 22.1904 29.3785C22.4462 29.4581 22.6565 29.5746 22.8213 29.728C22.9862 29.8758 23.1084 30.052 23.1879 30.2566C23.2675 30.4556 23.3073 30.6744 23.3073 30.9131C23.3073 31.1461 23.2419 31.3735 23.1112 31.5952C22.9805 31.8111 22.8043 31.976 22.5826 32.0897C22.8895 32.2147 23.1254 32.4023 23.2902 32.6523C23.4607 32.8967 23.546 33.1923 23.546 33.539C23.546 33.8118 23.5005 34.0648 23.4096 34.2978C23.3187 34.5251 23.1766 34.7241 22.9833 34.8946C22.7901 35.0594 22.5428 35.1901 22.2416 35.2868C21.946 35.3777 21.5936 35.4232 21.1844 35.4232Z" fill="#EF5933"/>
<path d="M28.6389 32.3284C28.6389 33.323 28.4485 34.0875 28.0677 34.6218C27.6925 35.1504 27.1725 35.4147 26.5075 35.4147C25.8425 35.4147 25.3196 35.1504 24.9387 34.6218C24.5636 34.0875 24.3761 33.323 24.3761 32.3284C24.3761 31.8339 24.4244 31.3962 24.521 31.0154C24.6233 30.6346 24.7682 30.3135 24.9558 30.052C25.1434 29.7906 25.3679 29.5916 25.6293 29.4552C25.8908 29.3188 26.1835 29.2506 26.5075 29.2506C27.1725 29.2506 27.6925 29.5177 28.0677 30.052C28.4485 30.5806 28.6389 31.3394 28.6389 32.3284ZM27.343 32.3284C27.343 32.0328 27.3288 31.7657 27.3004 31.527C27.2719 31.2826 27.2265 31.0723 27.1639 30.8961C27.1014 30.7199 27.0162 30.5835 26.9082 30.4868C26.8002 30.3902 26.6666 30.3419 26.5075 30.3419C26.3483 30.3419 26.2148 30.3902 26.1068 30.4868C26.0045 30.5835 25.9192 30.7199 25.851 30.8961C25.7885 31.0723 25.743 31.2826 25.7146 31.527C25.6862 31.7657 25.672 32.0328 25.672 32.3284C25.672 32.6239 25.6862 32.8939 25.7146 33.1383C25.743 33.3827 25.7885 33.593 25.851 33.7692C25.9192 33.9454 26.0045 34.0818 26.1068 34.1784C26.2148 34.2751 26.3483 34.3234 26.5075 34.3234C26.6666 34.3234 26.8002 34.2751 26.9082 34.1784C27.0162 34.0818 27.1014 33.9454 27.1639 33.7692C27.2265 33.593 27.2719 33.3827 27.3004 33.1383C27.3288 32.8939 27.343 32.6239 27.343 32.3284Z" fill="#EF5933"/>
<path d="M32.2483 30.9046C32.2483 31.4389 32.1119 31.8481 31.8391 32.1323C31.5662 32.4165 31.1996 32.5586 30.7393 32.5586C30.2789 32.5586 29.9123 32.4165 29.6394 32.1323C29.3666 31.8481 29.2302 31.4389 29.2302 30.9046C29.2302 30.3703 29.3666 29.9611 29.6394 29.6769C29.9123 29.3927 30.2789 29.2506 30.7393 29.2506C31.1996 29.2506 31.5662 29.3927 31.8391 29.6769C32.1119 29.9611 32.2483 30.3703 32.2483 30.9046ZM31.2849 30.9046C31.2849 30.6147 31.2337 30.4044 31.1314 30.2737C31.0291 30.143 30.8984 30.0776 30.7393 30.0776C30.5744 30.0776 30.4409 30.143 30.3385 30.2737C30.2419 30.4044 30.1936 30.6147 30.1936 30.9046C30.1936 31.1945 30.2419 31.4076 30.3385 31.544C30.4409 31.6747 30.5744 31.7401 30.7393 31.7401C30.8984 31.7401 31.0291 31.6747 31.1314 31.544C31.2337 31.4076 31.2849 31.1945 31.2849 30.9046ZM33.9108 29.387H35.0959L31.7623 35.2953H30.5773L33.9108 29.387ZM36.46 33.7777C36.46 34.312 36.3236 34.7212 36.0507 35.0054C35.7779 35.2896 35.4113 35.4317 34.9509 35.4317C34.4905 35.4317 34.1239 35.2896 33.8511 35.0054C33.5783 34.7212 33.4419 34.312 33.4419 33.7777C33.4419 33.2435 33.5783 32.8342 33.8511 32.55C34.1239 32.2658 34.4905 32.1238 34.9509 32.1238C35.4113 32.1238 35.7779 32.2658 36.0507 32.55C36.3236 32.8342 36.46 33.2435 36.46 33.7777ZM35.4966 33.7777C35.4966 33.4879 35.4454 33.2776 35.3431 33.1468C35.2408 33.0161 35.1101 32.9507 34.9509 32.9507C34.7861 32.9507 34.6525 33.0161 34.5502 33.1468C34.4536 33.2776 34.4053 33.4879 34.4053 33.7777C34.4053 34.0676 34.4536 34.2807 34.5502 34.4172C34.6525 34.5479 34.7861 34.6132 34.9509 34.6132C35.1101 34.6132 35.2408 34.5479 35.3431 34.4172C35.4454 34.2807 35.4966 34.0676 35.4966 33.7777Z" fill="#EF5933"/>
<path d="M67.6848 77.5405H48.3204C47.6776 77.5405 47.061 77.2857 46.6058 76.832C46.1505 76.3783 45.8937 75.7626 45.8915 75.1199V48.312C45.8937 47.6693 46.1505 47.0537 46.6058 46.5999C47.061 46.1462 47.6776 45.8915 48.3204 45.8915H60.5966L70.1054 55.6894V75.1117C70.1064 75.4302 70.0446 75.7459 69.9234 76.0405C69.8023 76.3351 69.6242 76.603 69.3993 76.8286C69.1745 77.0542 68.9073 77.2333 68.613 77.3554C68.3188 77.4776 68.0033 77.5405 67.6848 77.5405Z" fill="#DFDFDF"/>
<path d="M60.5966 45.8915V53.434C60.5987 54.0315 60.837 54.6039 61.2595 55.0264C61.682 55.4489 62.2544 55.6872 62.8519 55.6894H70.1053L60.5966 45.8915Z" fill="#C9C9C9"/>
<path d="M53.466 68.3789C53.466 68.5949 53.4234 68.8023 53.3381 69.0012C53.2529 69.2002 53.1421 69.3934 53.0056 69.581C52.8692 69.7629 52.7158 69.9391 52.5453 70.1096C52.3747 70.2801 52.2071 70.4421 52.0422 70.5955C51.957 70.6751 51.8632 70.7661 51.7609 70.8684C51.6643 70.965 51.5705 71.0645 51.4796 71.1668C51.3886 71.2691 51.3062 71.3657 51.2323 71.4566C51.1641 71.5419 51.1215 71.6129 51.1044 71.6698H53.6451V72.7355H49.7062C49.6949 72.673 49.6892 72.5934 49.6892 72.4968C49.6892 72.4001 49.6892 72.3319 49.6892 72.2921C49.6892 72.0193 49.7318 71.7692 49.8171 71.5419C49.908 71.3145 50.0245 71.1042 50.1666 70.911C50.3087 70.7121 50.4678 70.5273 50.644 70.3568C50.8259 70.1863 51.005 70.0158 51.1812 69.8453C51.3176 69.7146 51.4455 69.5924 51.5648 69.4787C51.6842 69.3593 51.7893 69.2456 51.8803 69.1377C51.9712 69.024 52.0422 68.9131 52.0934 68.8052C52.1446 68.6915 52.1701 68.5778 52.1701 68.4641C52.1701 68.214 52.0991 68.0378 51.957 67.9355C51.8149 67.8332 51.6387 67.7821 51.4284 67.7821C51.2749 67.7821 51.13 67.8077 50.9936 67.8588C50.8629 67.9043 50.7407 67.9611 50.627 68.0293C50.519 68.0918 50.4252 68.1572 50.3456 68.2254C50.2661 68.2879 50.2064 68.3391 50.1666 68.3789L49.5357 67.4922C49.7858 67.2592 50.0757 67.0688 50.4053 66.921C50.7407 66.7675 51.0987 66.6908 51.4796 66.6908C51.8263 66.6908 52.1247 66.7306 52.3747 66.8102C52.6248 66.8897 52.8294 67.0034 52.9886 67.1512C53.1534 67.2933 53.2728 67.4695 53.3467 67.6798C53.4262 67.8844 53.466 68.1174 53.466 68.3789Z" fill="#EF5933"/>
<path d="M58.6356 69.7686C58.6356 70.7632 58.4452 71.5277 58.0644 72.062C57.6893 72.5905 57.1692 72.8548 56.5042 72.8548C55.8392 72.8548 55.3163 72.5905 54.9355 72.062C54.5604 71.5277 54.3728 70.7632 54.3728 69.7686C54.3728 69.2741 54.4211 68.8364 54.5177 68.4556C54.6201 68.0748 54.765 67.7537 54.9526 67.4922C55.1401 67.2308 55.3646 67.0318 55.6261 66.8954C55.8875 66.759 56.1802 66.6908 56.5042 66.6908C57.1692 66.6908 57.6893 66.9579 58.0644 67.4922C58.4452 68.0208 58.6356 68.7796 58.6356 69.7686ZM57.3397 69.7686C57.3397 69.473 57.3255 69.2059 57.2971 68.9671C57.2687 68.7227 57.2232 68.5124 57.1607 68.3362C57.0982 68.16 57.0129 68.0236 56.9049 67.927C56.7969 67.8304 56.6634 67.7821 56.5042 67.7821C56.3451 67.7821 56.2115 67.8304 56.1035 67.927C56.0012 68.0236 55.916 68.16 55.8477 68.3362C55.7852 68.5124 55.7398 68.7227 55.7113 68.9671C55.6829 69.2059 55.6687 69.473 55.6687 69.7686C55.6687 70.0641 55.6829 70.3341 55.7113 70.5785C55.7398 70.8229 55.7852 71.0332 55.8477 71.2094C55.916 71.3856 56.0012 71.522 56.1035 71.6186C56.2115 71.7152 56.3451 71.7636 56.5042 71.7636C56.6634 71.7636 56.7969 71.7152 56.9049 71.6186C57.0129 71.522 57.0982 71.3856 57.1607 71.2094C57.2232 71.0332 57.2687 70.8229 57.2971 70.5785C57.3255 70.3341 57.3397 70.0641 57.3397 69.7686Z" fill="#EF5933"/>
<path d="M62.245 68.3448C62.245 68.879 62.1086 69.2883 61.8358 69.5725C61.563 69.8567 61.1964 69.9987 60.736 69.9987C60.2756 69.9987 59.909 69.8567 59.6362 69.5725C59.3634 69.2883 59.227 68.879 59.227 68.3448C59.227 67.8105 59.3634 67.4013 59.6362 67.1171C59.909 66.8329 60.2756 66.6908 60.736 66.6908C61.1964 66.6908 61.563 66.8329 61.8358 67.1171C62.1086 67.4013 62.245 67.8105 62.245 68.3448ZM61.2817 68.3448C61.2817 68.0549 61.2305 67.8446 61.1282 67.7139C61.0259 67.5831 60.8952 67.5178 60.736 67.5178C60.5712 67.5178 60.4376 67.5831 60.3353 67.7139C60.2387 67.8446 60.1904 68.0549 60.1904 68.3448C60.1904 68.6346 60.2387 68.8478 60.3353 68.9842C60.4376 69.1149 60.5712 69.1803 60.736 69.1803C60.8952 69.1803 61.0259 69.1149 61.1282 68.9842C61.2305 68.8478 61.2817 68.6346 61.2817 68.3448ZM63.9076 66.8272H65.0926L61.7591 72.7355H60.574L63.9076 66.8272ZM66.4567 71.2179C66.4567 71.7522 66.3203 72.1614 66.0475 72.4456C65.7747 72.7298 65.4081 72.8719 64.9477 72.8719C64.4873 72.8719 64.1207 72.7298 63.8479 72.4456C63.5751 72.1614 63.4386 71.7522 63.4386 71.2179C63.4386 70.6836 63.5751 70.2744 63.8479 69.9902C64.1207 69.706 64.4873 69.5639 64.9477 69.5639C65.4081 69.5639 65.7747 69.706 66.0475 69.9902C66.3203 70.2744 66.4567 70.6836 66.4567 71.2179ZM65.4933 71.2179C65.4933 70.928 65.4422 70.7177 65.3399 70.587C65.2376 70.4563 65.1068 70.3909 64.9477 70.3909C64.7829 70.3909 64.6493 70.4563 64.547 70.587C64.4503 70.7177 64.402 70.928 64.402 71.2179C64.402 71.5078 64.4503 71.7209 64.547 71.8573C64.6493 71.9881 64.7829 72.0534 64.9477 72.0534C65.1068 72.0534 65.2376 71.9881 65.3399 71.8573C65.4422 71.7209 65.4933 71.5078 65.4933 71.2179Z" fill="#EF5933"/>
</g>
<defs>
<clipPath id="clip0_473_823">
<rect width="86" height="86" fill="white"/>
</clipPath>
</defs>
</svg>
